<svg id="redwoods-community" width="359" height="39" viewBox="0 0 359 39" fill="none" xmlns="http://www.w3.org/2000/svg">
<path d="M9.96875 27.3115C9.41536 27.1488 9.0166 26.7988 8.77246 26.2617C8.59342 25.9199 8.50391 25.4886 8.50391 24.9678C8.50391 24.154 8.71549 23.1123 9.13867 21.8428C9.30143 21.3219 9.53743 20.7035 9.84668 19.9873C10.1559 19.2549 10.4408 18.6201 10.7012 18.083C10.7826 17.9202 10.8395 17.7982 10.8721 17.7168C10.9046 17.6191 10.9209 17.554 10.9209 17.5215C10.9046 17.5215 10.6523 17.7087 10.1641 18.083C9.69206 18.4411 9.10612 18.8805 8.40625 19.4014C7.46224 20.1338 6.73796 20.6953 6.2334 21.0859C5.72884 21.4603 5.33822 21.7451 5.06152 21.9404C4.80111 22.1195 4.57324 22.2741 4.37793 22.4043C3.69434 22.8112 3.10026 23.0146 2.5957 23.0146C1.97721 23.0146 1.48893 22.7054 1.13086 22.0869C1.01693 21.8428 0.959961 21.5498 0.959961 21.208C0.959961 20.5407 1.18783 19.7025 1.64355 18.6934C2.32715 17.2122 3.29557 15.7962 4.54883 14.4453C5.9974 12.9642 7.15299 12.1178 8.01562 11.9062C8.89453 11.6947 9.50488 11.5889 9.84668 11.5889C10.7581 11.5889 11.5557 11.9144 12.2393 12.5654L12.7031 13.0049L13.2158 12.6875C13.8506 12.2806 14.3551 12.0771 14.7295 12.0771C14.7946 12.0771 14.8597 12.0853 14.9248 12.1016C15.2992 12.1829 15.5758 12.362 15.7549 12.6387C15.9502 12.9154 16.0479 13.1921 16.0479 13.4688C16.0479 13.5501 16.0397 13.6396 16.0234 13.7373C15.9909 13.8512 15.8688 14.1117 15.6572 14.5186C15.4456 14.9255 15.1852 15.3812 14.876 15.8857C13.5576 18.0667 12.5729 19.9954 11.9219 21.6719C11.7103 22.1927 11.515 22.7461 11.3359 23.332C11.1569 23.918 11.0674 24.276 11.0674 24.4062C11.0674 24.4388 11.0918 24.4551 11.1406 24.4551C11.2708 24.4551 11.5638 24.2679 12.0195 23.8936C12.6055 23.3727 13.346 22.681 14.2412 21.8184C15.1364 20.9395 16.0316 20.0524 16.9268 19.1572C17.6917 18.4085 18.359 17.7575 18.9287 17.2041C19.4984 16.6344 19.8971 16.2601 20.125 16.0811C20.4342 15.8695 20.7191 15.7637 20.9795 15.7637C21.126 15.7637 21.2643 15.7962 21.3945 15.8613C21.6712 16.0078 21.8096 16.2764 21.8096 16.667C21.8096 16.7646 21.8014 16.8704 21.7852 16.9844C21.7689 17.0983 21.7119 17.2285 21.6143 17.375C21.5329 17.5215 21.3538 17.7493 21.0771 18.0586C20.8167 18.3516 20.418 18.791 19.8809 19.377C17.6185 21.8835 15.9014 23.6901 14.7295 24.7969C13.5576 25.9036 12.5892 26.6279 11.8242 26.9697C11.2708 27.2301 10.7907 27.3604 10.3838 27.3604C10.2373 27.3604 10.099 27.3441 9.96875 27.3115ZM7.35645 17.0332C8.21908 16.3659 8.9515 15.8044 9.55371 15.3486C10.1559 14.8766 10.4814 14.6243 10.5303 14.5918C10.5465 14.5755 10.5547 14.5592 10.5547 14.543C10.5547 14.5104 10.5303 14.4697 10.4814 14.4209C10.4163 14.3395 10.3268 14.2663 10.2129 14.2012C10.099 14.1361 9.99316 14.1035 9.89551 14.1035C9.40723 14.1035 8.79688 14.3395 8.06445 14.8115C7.33203 15.2673 6.65658 15.8451 6.03809 16.5449C5.84277 16.7728 5.63118 17.0413 5.40332 17.3506C5.17546 17.6598 4.96387 17.9691 4.76855 18.2783C4.57324 18.5876 4.41862 18.8317 4.30469 19.0107C4.20703 19.1898 4.1582 19.3037 4.1582 19.3525C4.1582 19.3688 4.16634 19.377 4.18262 19.377C4.19889 19.377 4.50814 19.1572 5.11035 18.7178C5.72884 18.262 6.47754 17.7005 7.35645 17.0332ZM38.1426 27.458C37.7031 27.279 37.3532 26.9209 37.0928 26.3838C36.9788 26.2048 36.9056 26.0176 36.873 25.8223C36.8405 25.6107 36.8161 25.3014 36.7998 24.8945V23.9912C36.8161 23.682 36.8405 23.4297 36.873 23.2344C37.1986 21.3464 38.0531 18.9619 39.4365 16.0811C39.6481 15.6253 39.8271 15.2428 39.9736 14.9336C40.1201 14.6081 40.1934 14.4372 40.1934 14.4209L39.4854 15.1045C39.0133 15.5602 38.4274 16.1299 37.7275 16.8135C35.6117 18.9131 33.9189 20.4512 32.6494 21.4277C31.3962 22.388 30.4277 22.9089 29.7441 22.9902H29.5488C29.0768 22.9902 28.6618 22.8275 28.3037 22.502C27.9131 22.1113 27.7015 21.6149 27.6689 21.0127C27.6689 20.7686 27.7422 20.3942 27.8887 19.8896C28.0352 19.3688 28.2061 18.9049 28.4014 18.498C29.1012 17.0169 30.0046 15.6742 31.1113 14.4697C32.2181 13.2653 33.3656 12.3864 34.5537 11.833C35.3838 11.4587 36.1569 11.2715 36.873 11.2715C37.4264 11.2715 37.9391 11.3854 38.4111 11.6133C38.5576 11.6784 38.6878 11.7435 38.8018 11.8086C38.9157 11.8574 38.9808 11.8818 38.9971 11.8818C39.0296 11.8818 39.3714 11.5482 40.0225 10.8809C40.6898 10.1973 41.4873 9.37533 42.415 8.41504C43.359 7.43848 44.2949 6.46191 45.2227 5.48535C46.1504 4.50879 46.9235 3.68685 47.542 3.01953C47.5908 2.9707 47.6396 2.91374 47.6885 2.84863C48.2744 2.21387 48.7383 1.71745 49.0801 1.35938C49.4219 1.0013 49.6742 0.740885 49.8369 0.578125C49.9997 0.415365 50.1217 0.30957 50.2031 0.260742C50.3008 0.211914 50.4066 0.171224 50.5205 0.138672C50.6344 0.122396 50.7402 0.114258 50.8379 0.114258C51.1797 0.114258 51.4727 0.22819 51.7168 0.456055C51.9772 0.700195 52.1074 1.0013 52.1074 1.35938C52.1074 1.44076 52.0993 1.52214 52.083 1.60352C52.0667 1.66862 52.0342 1.74186 51.9854 1.82324C51.9528 1.90462 51.8796 2.01855 51.7656 2.16504C51.668 2.29525 51.5052 2.4987 51.2773 2.77539C51.0495 3.05208 50.7402 3.41829 50.3496 3.87402C49.487 4.91569 48.5267 6.17708 47.4688 7.6582C46.4108 9.12305 45.4424 10.5716 44.5635 12.0039C43.0335 14.4941 41.7803 16.8949 40.8037 19.2061C39.8434 21.5173 39.347 23.2832 39.3145 24.5039C39.3145 24.6016 39.3226 24.6911 39.3389 24.7725C39.3551 24.8376 39.3714 24.8701 39.3877 24.8701C39.4854 24.8538 39.7783 24.6504 40.2666 24.2598C40.7549 23.8529 41.3001 23.3809 41.9023 22.8438C44.0671 20.8418 46.1504 18.7747 48.1523 16.6426C48.25 16.5286 48.3477 16.4229 48.4453 16.3252C49.5846 15.1696 50.3171 14.5674 50.6426 14.5186C50.9681 14.4535 51.1797 14.4209 51.2773 14.4209C51.6354 14.4209 51.8145 14.6162 51.8145 15.0068C51.7982 15.5114 51.5133 16.0892 50.96 16.7402C50.7321 17.0007 50.3659 17.4157 49.8613 17.9854C49.373 18.555 48.8604 19.1491 48.3232 19.7676C44.4658 24.1784 41.6582 26.7419 39.9004 27.458C39.6237 27.5557 39.3226 27.6045 38.9971 27.6045C38.6553 27.6045 38.3704 27.5557 38.1426 27.458ZM31.5508 19.0596C31.86 18.8154 32.3076 18.4248 32.8936 17.8877C33.4958 17.3506 34.1143 16.7891 34.749 16.2031C35.3838 15.6009 35.929 15.0801 36.3848 14.6406C36.8405 14.1849 37.0684 13.9326 37.0684 13.8838C37.0684 13.835 37.0114 13.8105 36.8975 13.8105C36.8486 13.8105 36.7835 13.8187 36.7021 13.835C36.458 13.8675 36.1976 13.9326 35.9209 14.0303C35.0908 14.3395 34.2119 14.958 33.2842 15.8857C32.3727 16.8135 31.624 17.8307 31.0381 18.9375C31.0218 18.9701 31.0055 19.0107 30.9893 19.0596C30.8102 19.3688 30.7207 19.556 30.7207 19.6211C30.7207 19.6374 30.7288 19.6455 30.7451 19.6455C30.8102 19.6455 31.0299 19.4827 31.4043 19.1572L31.5508 19.0596ZM47.2246 19.1328C47.599 17.5215 48.2256 16.016 49.1045 14.6162C49.9997 13.2002 50.9925 12.126 52.083 11.3936C52.9131 10.889 53.7188 10.6367 54.5 10.6367C54.6628 10.6367 54.8255 10.6449 54.9883 10.6611C55.9323 10.7913 56.6322 11.2715 57.0879 12.1016C57.2507 12.4759 57.332 12.8665 57.332 13.2734C57.332 14.3965 56.6891 15.6253 55.4033 16.96C54.085 18.3271 52.8561 19.0107 51.7168 19.0107C51.4401 19.0107 51.1715 18.9701 50.9111 18.8887C50.7321 18.8398 50.5693 18.7992 50.4229 18.7666C50.2764 18.7178 50.1787 18.6934 50.1299 18.6934C49.9997 18.7096 49.8857 18.9619 49.7881 19.4502C49.6904 19.9222 49.6335 20.4674 49.6172 21.0859V21.3301C49.6172 22.2415 49.7962 22.8031 50.1543 23.0146C50.252 23.0798 50.374 23.1123 50.5205 23.1123C50.9111 23.1123 51.4482 22.9007 52.1318 22.4775C53.6455 21.5661 54.9801 20.6302 56.1357 19.6699C57.2913 18.6934 58.4714 17.611 59.6758 16.4229C60.2943 15.8532 60.8151 15.5684 61.2383 15.5684H61.2627C61.6859 15.5846 61.9056 15.7067 61.9219 15.9346L61.9463 16.252C61.9463 16.6751 61.6615 17.196 61.0918 17.8145C60.8802 18.0423 60.571 18.3678 60.1641 18.791C59.7734 19.1979 59.3828 19.6048 58.9922 20.0117C56.6973 22.4206 54.5651 24.1214 52.5957 25.1143C51.7819 25.4886 51.0495 25.6758 50.3984 25.6758C49.9264 25.6758 49.5033 25.5781 49.1289 25.3828C48.2174 24.9108 47.6396 24.2435 47.3955 23.3809C47.1351 22.502 47.0049 21.7207 47.0049 21.0371C47.0049 20.4349 47.0781 19.8001 47.2246 19.1328ZM52.4004 16.1787C52.7422 15.9834 53.141 15.6497 53.5967 15.1777C54.0524 14.6895 54.3779 14.2663 54.5732 13.9082C54.7035 13.6478 54.7686 13.4606 54.7686 13.3467V13.3223C54.7523 13.2083 54.6465 13.1514 54.4512 13.1514C53.9954 13.1514 53.3851 13.5257 52.6201 14.2744C52.3923 14.5023 52.1562 14.7627 51.9121 15.0557C51.6842 15.3486 51.4971 15.6009 51.3506 15.8125C51.2041 16.0241 51.1309 16.1624 51.1309 16.2275V16.252L51.2285 16.2764C51.2773 16.3089 51.3343 16.3415 51.3994 16.374C51.4971 16.4066 51.6029 16.4229 51.7168 16.4229H51.8145C51.9447 16.3903 52.14 16.3089 52.4004 16.1787ZM55.8428 29.7041C54.8662 29.2972 54.3779 28.638 54.3779 27.7266C54.3779 27.4173 54.4349 27.0837 54.5488 26.7256C55.0046 25.2282 57.0879 23.1693 60.7988 20.5488C60.7988 20.5326 60.7663 20.4268 60.7012 20.2314C60.6361 20.0199 60.5547 19.7594 60.457 19.4502C60.1641 18.6527 60.0176 17.8796 60.0176 17.1309C60.0176 15.6823 60.5547 14.307 61.6289 13.0049C62.2474 12.2399 62.9066 11.6051 63.6064 11.1006C64.3063 10.5798 64.876 10.3193 65.3154 10.3193C65.999 10.3193 66.4466 10.5309 66.6582 10.9541C66.8861 11.361 67 11.7435 67 12.1016C67 12.4271 66.9349 12.777 66.8047 13.1514C66.6419 13.6396 66.4385 13.9326 66.1943 14.0303C65.9502 14.1117 65.763 14.1523 65.6328 14.1523C65.3887 14.1523 65.1283 14.0628 64.8516 13.8838L64.4854 13.6152L64.0215 14.1279C63.0612 15.1208 62.5811 16.0729 62.5811 16.9844C62.5811 17.0983 62.5892 17.2122 62.6055 17.3262C62.6055 17.5215 62.6299 17.7331 62.6787 17.9609C62.7275 18.1725 62.7764 18.3516 62.8252 18.498L62.9717 19.0107L63.46 18.6934C66.0804 17.0169 67.8057 16.0729 68.6357 15.8613C69.2705 15.666 69.8158 15.5684 70.2715 15.5684C70.4668 15.5684 70.6458 15.5846 70.8086 15.6172C71.248 15.7148 71.4678 15.902 71.4678 16.1787C71.4678 16.2601 71.4515 16.3415 71.4189 16.4229C71.2725 16.8135 70.6051 17.2692 69.417 17.79C68.0986 18.376 66.821 19.1165 65.584 20.0117C65.4212 20.1257 65.2585 20.2314 65.0957 20.3291C64.7051 20.5895 64.4284 20.8092 64.2656 20.9883C64.1029 21.151 64.0133 21.2975 63.9971 21.4277C63.9971 21.5417 63.9971 21.6393 63.9971 21.7207C63.9971 21.8835 64.0052 22.0706 64.0215 22.2822C64.0378 22.4287 64.054 22.5996 64.0703 22.7949C64.0866 22.9414 64.0947 23.0879 64.0947 23.2344C64.0947 24.4551 63.7204 25.5863 62.9717 26.6279C62.1253 27.7998 60.9372 28.7031 59.4072 29.3379C58.4958 29.696 57.682 29.875 56.9658 29.875C56.5589 29.875 56.1846 29.818 55.8428 29.7041ZM58.0156 27.1162C58.569 26.9697 59.1305 26.7012 59.7002 26.3105C60.2536 25.9036 60.693 25.4561 61.0186 24.9678C61.1976 24.6911 61.3359 24.3981 61.4336 24.0889C61.5312 23.7796 61.5801 23.5518 61.5801 23.4053C61.5801 23.3402 61.5719 23.2832 61.5557 23.2344H61.5312C61.4987 23.2344 61.3359 23.332 61.043 23.5273C60.7337 23.7389 60.3594 24.0238 59.9199 24.3818C59.4805 24.7399 59.0654 25.098 58.6748 25.4561C58.4307 25.6839 58.1865 25.9281 57.9424 26.1885C57.6982 26.4489 57.4948 26.6849 57.332 26.8965C57.1693 27.0918 57.0879 27.222 57.0879 27.2871C57.0879 27.3034 57.1123 27.3115 57.1611 27.3115C57.21 27.3115 57.3076 27.2952 57.4541 27.2627C57.5843 27.2301 57.7715 27.1813 58.0156 27.1162ZM74.9102 7.92676C74.5195 7.68262 74.3161 7.44661 74.2998 7.21875C74.2835 6.99089 74.2754 6.85254 74.2754 6.80371C74.2754 6.47819 74.3812 6.17708 74.5928 5.90039C74.8532 5.57487 75.2194 5.41211 75.6914 5.41211C76.2611 5.41211 76.6191 5.57487 76.7656 5.90039C76.9284 6.22591 77.0098 6.48633 77.0098 6.68164C77.0098 6.95833 76.904 7.24316 76.6924 7.53613C76.3506 7.91048 75.9844 8.09766 75.5938 8.09766C75.3659 8.09766 75.138 8.04069 74.9102 7.92676ZM67.1709 22.8438C67.1058 22.5182 67.0732 22.1683 67.0732 21.7939C67.0732 20.7197 67.3743 19.4258 67.9766 17.9121C68.5625 16.5612 69.2786 15.2591 70.125 14.0059C70.9876 12.7526 71.6794 11.9795 72.2002 11.6865C72.4281 11.5889 72.6478 11.54 72.8594 11.54C73.0872 11.54 73.2907 11.597 73.4697 11.7109C73.8441 11.9551 74.0312 12.3294 74.0312 12.834C74.0312 12.9805 74.015 13.1025 73.9824 13.2002C73.9661 13.2816 73.9092 13.3792 73.8115 13.4932C73.7301 13.6071 73.5918 13.7699 73.3965 13.9814C72.4525 15.0394 71.6143 16.2845 70.8818 17.7168C70.1657 19.1491 69.7588 20.3698 69.6611 21.3789C69.6449 21.5579 69.6367 21.7044 69.6367 21.8184C69.6367 22.0137 69.6611 22.1276 69.71 22.1602H69.7588C69.889 22.1602 70.1494 22.0544 70.54 21.8428C73.9255 20.0687 76.6436 18.0749 78.6943 15.8613C79.1175 15.4544 79.4756 15.251 79.7686 15.251C79.8825 15.251 79.9883 15.2835 80.0859 15.3486C80.3464 15.5114 80.4766 15.7637 80.4766 16.1055C80.4766 16.2194 80.4603 16.3496 80.4277 16.4961C80.2975 16.8379 79.9395 17.3262 79.3535 17.9609C78.7676 18.5957 78.141 19.2142 77.4736 19.8164C76.8226 20.4186 76.3506 20.8418 76.0576 21.0859C74.4788 22.3717 73.0628 23.3646 71.8096 24.0645C71.0446 24.4876 70.2715 24.6992 69.4902 24.6992C69.36 24.6992 69.2298 24.6911 69.0996 24.6748C68.1882 24.5771 67.5452 23.9668 67.1709 22.8438ZM71.3457 38.1758C70.4505 37.7201 70.0029 36.9958 70.0029 36.0029C70.0029 35.5309 70.1087 34.9938 70.3203 34.3916C70.597 33.6755 71.1341 32.8372 71.9316 31.877C72.7292 30.9167 73.6569 29.9889 74.7148 29.0938C75.431 28.5078 76.7249 27.515 78.5967 26.1152C80.4684 24.6992 82.2425 23.389 83.9189 22.1846L85.4326 21.1104L86.0918 19.5967C86.3034 19.0921 86.5231 18.555 86.751 17.9854C86.9788 17.3994 87.1579 16.903 87.2881 16.4961C87.4346 16.0892 87.5078 15.8532 87.5078 15.7881V15.7637C87.4915 15.7637 87.3125 15.9183 86.9707 16.2275C86.6289 16.5205 86.2139 16.8949 85.7256 17.3506C83.4795 19.4339 81.7624 20.8988 80.5742 21.7451C79.4023 22.5752 78.4909 22.9902 77.8398 22.9902C77.0586 22.9902 76.5703 22.7461 76.375 22.2578C76.1634 21.7695 76.0576 21.3219 76.0576 20.915C76.0576 20.4593 76.1471 19.9466 76.3262 19.377C76.9284 17.6517 77.9456 16.0566 79.3779 14.5918C80.6312 13.3711 81.6403 12.6712 82.4053 12.4922C83.1702 12.2969 83.6992 12.1992 83.9922 12.1992C84.7734 12.1992 85.4245 12.4678 85.9453 13.0049L86.2871 13.3467L86.9707 12.8096C87.6543 12.305 88.2402 12.0527 88.7285 12.0527C88.8587 12.0527 88.9808 12.069 89.0947 12.1016C89.9411 12.3294 90.3643 12.9967 90.3643 14.1035C90.3643 14.6406 90.2666 15.2835 90.0713 16.0322C89.9899 16.3577 89.9004 16.6751 89.8027 16.9844C89.7214 17.2936 89.6481 17.5296 89.583 17.6924C89.5505 17.79 89.5016 17.9284 89.4365 18.1074C89.3714 18.2702 89.3145 18.4248 89.2656 18.5713C89.2168 18.7178 89.1924 18.7992 89.1924 18.8154C89.2087 18.8154 89.3551 18.734 89.6318 18.5713C90.2178 18.2458 91.0234 17.8145 92.0488 17.2773C93.0742 16.7402 93.945 16.3252 94.6611 16.0322C94.9867 15.9346 95.2633 15.8857 95.4912 15.8857C95.8818 15.8857 96.1585 16.016 96.3213 16.2764C96.3864 16.374 96.4189 16.4798 96.4189 16.5938C96.4189 16.9518 96.0853 17.3587 95.418 17.8145C95.2227 17.9284 94.9378 18.0993 94.5635 18.3271C93.7985 18.7666 92.887 19.3037 91.8291 19.9385C90.7874 20.557 89.8678 21.1348 89.0703 21.6719L87.459 22.8193L87.0928 23.5518C85.4001 26.9046 83.4469 29.9157 81.2334 32.585C80.1266 33.9033 78.9059 35.0671 77.5713 36.0762C76.2367 37.1016 74.9997 37.8096 73.8604 38.2002C73.4046 38.3467 72.9733 38.4199 72.5664 38.4199C72.127 38.4199 71.7201 38.3385 71.3457 38.1758ZM79.4512 19.4258C80.151 18.8724 81.1764 18.0016 82.5273 16.8135C82.8691 16.5042 83.1296 16.2601 83.3086 16.0811C83.5039 15.902 83.6423 15.7637 83.7236 15.666C83.8213 15.5684 83.8783 15.487 83.8945 15.4219C83.9108 15.3405 83.9189 15.251 83.9189 15.1533C83.9189 15.0068 83.9108 14.9092 83.8945 14.8604C83.8945 14.7952 83.8701 14.7627 83.8213 14.7627C83.7887 14.7627 83.7318 14.7708 83.6504 14.7871C83.1784 14.901 82.6657 15.1615 82.1123 15.5684C81.5589 15.9753 81.0544 16.4635 80.5986 17.0332C80.3219 17.3587 80.0452 17.7331 79.7686 18.1562C79.5081 18.5632 79.3047 18.9049 79.1582 19.1816C79.0117 19.4421 78.9385 19.6048 78.9385 19.6699C78.9385 19.7025 78.9548 19.7188 78.9873 19.7188C79.0036 19.7188 79.0524 19.6943 79.1338 19.6455C79.2314 19.5804 79.3372 19.5072 79.4512 19.4258ZM73.8115 35.4658C76.4808 34.1312 79.1094 31.5596 81.6973 27.751C81.9251 27.4092 82.1204 27.1081 82.2832 26.8477C82.4622 26.5872 82.568 26.4326 82.6006 26.3838C82.568 26.3838 82.4704 26.4408 82.3076 26.5547C82.096 26.6849 81.8275 26.8721 81.502 27.1162C81.1276 27.3929 80.6963 27.7184 80.208 28.0928C79.8337 28.3532 79.5081 28.5892 79.2314 28.8008C75.7484 31.3724 73.6162 33.4557 72.835 35.0508C72.6559 35.3926 72.5745 35.6123 72.5908 35.71C72.5908 35.8076 72.6396 35.8564 72.7373 35.8564C72.7699 35.8564 72.8187 35.8483 72.8838 35.832C72.9814 35.7995 73.1198 35.7507 73.2988 35.6855C73.4616 35.6204 73.6325 35.5472 73.8115 35.4658ZM101.937 27.2139C100.895 26.8883 100.374 26.0339 100.374 24.6504C100.374 24.4225 100.39 24.1702 100.423 23.8936C100.521 22.6566 101.147 20.5732 102.303 17.6436C102.498 17.1715 102.645 16.7809 102.742 16.4717C102.856 16.1624 102.913 15.9834 102.913 15.9346V15.9102H102.889C102.84 15.9102 102.701 15.9753 102.474 16.1055C102.197 16.252 101.871 16.4473 101.497 16.6914C101.139 16.9193 100.781 17.1553 100.423 17.3994C99.2184 18.2458 97.8512 19.4095 96.3213 20.8906L95.4668 21.7451C94.946 22.266 94.5635 22.6159 94.3193 22.7949C94.0752 22.9577 93.8555 23.0391 93.6602 23.0391C93.5462 23.0391 93.4404 23.0228 93.3428 22.9902C92.8219 22.8438 92.5615 22.4531 92.5615 21.8184V21.6963C92.6266 21.2406 93.0335 20.1663 93.7822 18.4736C94.5146 16.7809 95.304 15.1045 96.1504 13.4443C96.9967 11.7679 97.599 10.7344 97.957 10.3438C98.1198 10.2135 98.25 10.124 98.3477 10.0752C98.4616 10.0264 98.5999 10.002 98.7627 10.002C99.137 10.002 99.4544 10.1322 99.7148 10.3926C99.9753 10.653 100.105 10.9622 100.105 11.3203C100.105 11.3854 100.065 11.5238 99.9834 11.7354C99.902 11.9469 99.7962 12.1748 99.666 12.4189C99.5358 12.6794 99.3486 13.0293 99.1045 13.4688C98.8766 13.9082 98.6488 14.3477 98.4209 14.7871L97.6396 16.2764L98.3721 15.7393C100.016 14.5348 101.44 13.6885 102.645 13.2002C103.149 13.0049 103.605 12.9072 104.012 12.9072C104.467 12.9072 104.866 13.0293 105.208 13.2734C105.631 13.5664 105.843 14.0384 105.843 14.6895C105.843 14.9987 105.794 15.3405 105.696 15.7148C105.55 16.2845 105.257 17.1309 104.817 18.2539C103.58 21.4277 102.962 23.4134 102.962 24.2109V24.333L102.986 24.6016L103.621 24.1377C104.695 23.3402 105.713 22.4613 106.673 21.501C107.649 20.5244 108.602 19.5316 109.529 18.5225C110.083 17.9365 110.628 17.3587 111.165 16.7891C111.604 16.3659 111.987 16.1543 112.312 16.1543C112.378 16.1543 112.435 16.1624 112.483 16.1787C112.858 16.2438 113.069 16.3984 113.118 16.6426C113.167 16.8704 113.191 17.0251 113.191 17.1064C113.191 17.4157 113.061 17.7412 112.801 18.083C112.622 18.2946 111.995 18.9945 110.921 20.1826C110.351 20.8174 109.773 21.4603 109.188 22.1113C108.618 22.7461 108.17 23.2507 107.845 23.625C105.631 26.0664 103.833 27.2871 102.449 27.2871C102.27 27.2871 102.099 27.2627 101.937 27.2139ZM117.122 29.7041C116.146 29.2972 115.657 28.638 115.657 27.7266C115.657 27.4173 115.714 27.0837 115.828 26.7256C116.284 25.2282 118.367 23.1693 122.078 20.5488C122.078 20.5326 122.046 20.4268 121.98 20.2314C121.915 20.0199 121.834 19.7594 121.736 19.4502C121.443 18.6527 121.297 17.8796 121.297 17.1309C121.297 15.6823 121.834 14.307 122.908 13.0049C123.527 12.2399 124.186 11.6051 124.886 11.1006C125.586 10.5798 126.155 10.3193 126.595 10.3193C127.278 10.3193 127.726 10.5309 127.938 10.9541C128.165 11.361 128.279 11.7435 128.279 12.1016C128.279 12.4271 128.214 12.777 128.084 13.1514C127.921 13.6396 127.718 13.9326 127.474 14.0303C127.229 14.1117 127.042 14.1523 126.912 14.1523C126.668 14.1523 126.408 14.0628 126.131 13.8838L125.765 13.6152L125.301 14.1279C124.34 15.1208 123.86 16.0729 123.86 16.9844C123.86 17.0983 123.868 17.2122 123.885 17.3262C123.885 17.5215 123.909 17.7331 123.958 17.9609C124.007 18.1725 124.056 18.3516 124.104 18.498L124.251 19.0107L124.739 18.6934C127.36 17.0169 129.085 16.0729 129.915 15.8613C130.55 15.666 131.095 15.5684 131.551 15.5684C131.746 15.5684 131.925 15.5846 132.088 15.6172C132.527 15.7148 132.747 15.902 132.747 16.1787C132.747 16.2601 132.731 16.3415 132.698 16.4229C132.552 16.8135 131.884 17.2692 130.696 17.79C129.378 18.376 128.1 19.1165 126.863 20.0117C126.701 20.1257 126.538 20.2314 126.375 20.3291C125.984 20.5895 125.708 20.8092 125.545 20.9883C125.382 21.151 125.293 21.2975 125.276 21.4277C125.276 21.5417 125.276 21.6393 125.276 21.7207C125.276 21.8835 125.285 22.0706 125.301 22.2822C125.317 22.4287 125.333 22.5996 125.35 22.7949C125.366 22.9414 125.374 23.0879 125.374 23.2344C125.374 24.4551 125 25.5863 124.251 26.6279C123.405 27.7998 122.216 28.7031 120.687 29.3379C119.775 29.696 118.961 29.875 118.245 29.875C117.838 29.875 117.464 29.818 117.122 29.7041ZM119.295 27.1162C119.848 26.9697 120.41 26.7012 120.979 26.3105C121.533 25.9036 121.972 25.4561 122.298 24.9678C122.477 24.6911 122.615 24.3981 122.713 24.0889C122.811 23.7796 122.859 23.5518 122.859 23.4053C122.859 23.3402 122.851 23.2832 122.835 23.2344H122.811C122.778 23.2344 122.615 23.332 122.322 23.5273C122.013 23.7389 121.639 24.0238 121.199 24.3818C120.76 24.7399 120.345 25.098 119.954 25.4561C119.71 25.6839 119.466 25.9281 119.222 26.1885C118.978 26.4489 118.774 26.6849 118.611 26.8965C118.449 27.0918 118.367 27.222 118.367 27.2871C118.367 27.3034 118.392 27.3115 118.44 27.3115C118.489 27.3115 118.587 27.2952 118.733 27.2627C118.864 27.2301 119.051 27.1813 119.295 27.1162ZM124.642 38.5664C123.86 38.1595 123.47 37.5573 123.47 36.7598C123.47 36.304 123.6 35.7832 123.86 35.1973C124.479 33.8626 126.001 32.1292 128.426 29.9971C130.835 27.8486 134.326 25.1387 138.899 21.8672L140.34 20.8418L140.682 19.792C140.779 19.4827 140.877 19.1735 140.975 18.8643C141.072 18.555 141.137 18.3109 141.17 18.1318C141.219 17.904 141.251 17.6761 141.268 17.4482C141.3 17.2204 141.316 17.0169 141.316 16.8379C141.316 16.6751 141.292 16.5938 141.243 16.5938C141.162 16.5938 140.787 16.8298 140.12 17.3018C139.453 17.7575 138.615 18.3597 137.605 19.1084C135.848 20.4268 134.489 21.3708 133.528 21.9404C132.584 22.5101 131.811 22.8519 131.209 22.9658C131.03 22.9984 130.851 23.0146 130.672 23.0146C129.874 23.0146 129.28 22.6566 128.89 21.9404C128.743 21.68 128.67 21.4277 128.67 21.1836C128.67 20.9395 128.67 20.793 128.67 20.7441C128.67 20.3535 128.727 19.9629 128.841 19.5723C129.345 17.9935 130.452 15.8776 132.161 13.2246C132.698 12.4108 133.113 11.8411 133.406 11.5156C133.715 11.1901 134 10.9948 134.261 10.9297C134.391 10.8971 134.505 10.8809 134.603 10.8809H134.676C134.79 10.8809 134.928 10.9297 135.091 11.0273C135.351 11.1413 135.53 11.2959 135.628 11.4912C135.742 11.6702 135.815 11.9714 135.848 12.3945C135.864 12.5898 135.872 12.7526 135.872 12.8828V13.0537C135.856 13.2165 135.815 13.3711 135.75 13.5176C135.652 13.7292 135.506 13.9082 135.311 14.0547C135.115 14.1849 134.912 14.25 134.7 14.25C134.603 14.25 134.367 14.543 133.992 15.1289C133.618 15.6986 133.219 16.3659 132.796 17.1309C132.373 17.8796 132.031 18.5387 131.771 19.1084C131.51 19.6618 131.38 20.0036 131.38 20.1338V20.1826H131.404C131.714 20.1826 133.309 19.1165 136.189 16.9844C136.775 16.5449 137.321 16.1462 137.825 15.7881C138.33 15.4137 138.672 15.1615 138.851 15.0312C139.925 14.3151 140.853 13.957 141.634 13.957C142.187 13.957 142.659 14.1279 143.05 14.4697C143.619 14.9743 143.904 15.7555 143.904 16.8135C143.904 17.0413 143.888 17.2773 143.855 17.5215C143.855 17.5866 143.847 17.6436 143.831 17.6924C143.815 17.8551 143.799 18.0179 143.782 18.1807C143.766 18.3434 143.75 18.4655 143.733 18.5469C143.733 18.6283 143.733 18.6852 143.733 18.7178V18.791C143.75 18.7747 143.953 18.6364 144.344 18.376C144.734 18.0993 145.223 17.7575 145.809 17.3506C146.622 16.7809 147.282 16.3333 147.786 16.0078C148.323 15.6986 148.787 15.5439 149.178 15.5439C149.275 15.5439 149.373 15.5521 149.471 15.5684C149.91 15.6823 150.13 15.9346 150.13 16.3252V16.3984C150.097 16.8216 149.682 17.3262 148.885 17.9121C148.592 18.1237 148.095 18.4736 147.396 18.9619C146.696 19.4502 145.955 19.971 145.174 20.5244L142.415 22.4775L142.049 23.332C141.626 24.3086 141.08 25.3828 140.413 26.5547C139.762 27.7103 139.111 28.7601 138.46 29.7041C136.767 32.0316 135.001 33.9521 133.162 35.4658C131.453 36.8005 129.988 37.6875 128.768 38.127C127.547 38.5827 126.587 38.8105 125.887 38.8105C125.415 38.8105 125 38.7292 124.642 38.5664ZM127.474 35.8809C130.501 34.6927 133.406 32.2269 136.189 28.4834C136.417 28.1579 136.661 27.7998 136.922 27.4092C137.199 27.0023 137.426 26.6442 137.605 26.335C137.785 26.0257 137.874 25.8548 137.874 25.8223C137.809 25.8385 137.369 26.1478 136.556 26.75C135.742 27.3522 134.806 28.0684 133.748 28.8984C132.706 29.7122 131.787 30.4447 130.989 31.0957C129.964 31.9746 128.995 32.8942 128.084 33.8545C127.156 34.8148 126.546 35.5553 126.253 36.0762C126.22 36.125 126.204 36.1576 126.204 36.1738C126.204 36.1901 126.212 36.1982 126.229 36.1982H126.473C126.57 36.1657 126.717 36.1169 126.912 36.0518C127.091 36.0029 127.278 35.946 127.474 35.8809ZM144.026 29.7041C143.05 29.2972 142.562 28.638 142.562 27.7266C142.562 27.4173 142.618 27.0837 142.732 26.7256C143.188 25.2282 145.271 23.1693 148.982 20.5488C148.982 20.5326 148.95 20.4268 148.885 20.2314C148.82 20.0199 148.738 19.7594 148.641 19.4502C148.348 18.6527 148.201 17.8796 148.201 17.1309C148.201 15.6823 148.738 14.307 149.812 13.0049C150.431 12.2399 151.09 11.6051 151.79 11.1006C152.49 10.5798 153.06 10.3193 153.499 10.3193C154.183 10.3193 154.63 10.5309 154.842 10.9541C155.07 11.361 155.184 11.7435 155.184 12.1016C155.184 12.4271 155.118 12.777 154.988 13.1514C154.826 13.6396 154.622 13.9326 154.378 14.0303C154.134 14.1117 153.947 14.1523 153.816 14.1523C153.572 14.1523 153.312 14.0628 153.035 13.8838L152.669 13.6152L152.205 14.1279C151.245 15.1208 150.765 16.0729 150.765 16.9844C150.765 17.0983 150.773 17.2122 150.789 17.3262C150.789 17.5215 150.813 17.7331 150.862 17.9609C150.911 18.1725 150.96 18.3516 151.009 18.498L151.155 19.0107L151.644 18.6934C154.264 17.0169 155.989 16.0729 156.819 15.8613C157.454 15.666 157.999 15.5684 158.455 15.5684C158.65 15.5684 158.829 15.5846 158.992 15.6172C159.432 15.7148 159.651 15.902 159.651 16.1787C159.651 16.2601 159.635 16.3415 159.603 16.4229C159.456 16.8135 158.789 17.2692 157.601 17.79C156.282 18.376 155.005 19.1165 153.768 20.0117C153.605 20.1257 153.442 20.2314 153.279 20.3291C152.889 20.5895 152.612 20.8092 152.449 20.9883C152.286 21.151 152.197 21.2975 152.181 21.4277C152.181 21.5417 152.181 21.6393 152.181 21.7207C152.181 21.8835 152.189 22.0706 152.205 22.2822C152.221 22.4287 152.238 22.5996 152.254 22.7949C152.27 22.9414 152.278 23.0879 152.278 23.2344C152.278 24.4551 151.904 25.5863 151.155 26.6279C150.309 27.7998 149.121 28.7031 147.591 29.3379C146.679 29.696 145.866 29.875 145.149 29.875C144.743 29.875 144.368 29.818 144.026 29.7041ZM146.199 27.1162C146.753 26.9697 147.314 26.7012 147.884 26.3105C148.437 25.9036 148.877 25.4561 149.202 24.9678C149.381 24.6911 149.52 24.3981 149.617 24.0889C149.715 23.7796 149.764 23.5518 149.764 23.4053C149.764 23.3402 149.756 23.2832 149.739 23.2344H149.715C149.682 23.2344 149.52 23.332 149.227 23.5273C148.917 23.7389 148.543 24.0238 148.104 24.3818C147.664 24.7399 147.249 25.098 146.858 25.4561C146.614 25.6839 146.37 25.9281 146.126 26.1885C145.882 26.4489 145.678 26.6849 145.516 26.8965C145.353 27.0918 145.271 27.222 145.271 27.2871C145.271 27.3034 145.296 27.3115 145.345 27.3115C145.394 27.3115 145.491 27.2952 145.638 27.2627C145.768 27.2301 145.955 27.1813 146.199 27.1162ZM155.818 28.3369C155.542 28.2393 155.265 28.0358 154.988 27.7266C154.695 27.401 154.5 27.0837 154.402 26.7744C154.321 26.4814 154.28 26.1234 154.28 25.7002V25.3096C154.297 24.7236 154.378 24.1214 154.524 23.5029C155.55 19.6292 157.535 15.3405 160.481 10.6367C160.693 10.2949 160.856 10.0182 160.97 9.80664C161.1 9.59505 161.165 9.46484 161.165 9.41602C161.149 9.41602 161.002 9.43229 160.726 9.46484C160.465 9.4974 160.148 9.52995 159.773 9.5625C157.804 9.79036 156.689 9.99382 156.429 10.1729C156.282 10.2542 156.111 10.2949 155.916 10.2949H155.818C155.574 10.2949 155.346 10.2298 155.135 10.0996C154.744 9.82292 154.549 9.5625 154.549 9.31836C154.549 9.07422 154.549 8.94401 154.549 8.92773C154.549 8.47201 154.736 8.12207 155.11 7.87793C155.713 7.51986 157.861 7.16992 161.556 6.82812L163.167 6.70605L163.46 6.31543C163.541 6.23405 163.688 6.06315 163.899 5.80273C164.127 5.52604 164.38 5.2168 164.656 4.875L164.998 4.48438C165.877 3.42643 166.569 2.62891 167.073 2.0918C167.594 1.55469 167.977 1.22917 168.221 1.11523C168.465 1.0013 168.668 0.944336 168.831 0.944336C168.961 0.944336 169.083 0.96875 169.197 1.01758C169.767 1.26172 170.052 1.67676 170.052 2.2627C170.052 2.3929 170.035 2.50684 170.003 2.60449C169.97 2.70215 169.881 2.83236 169.734 2.99512C169.604 3.15788 169.384 3.39388 169.075 3.70312C168.766 4.04492 168.432 4.41927 168.074 4.82617C167.716 5.2168 167.399 5.57487 167.122 5.90039C166.862 6.20964 166.731 6.38053 166.731 6.41309L167.146 6.38867C167.423 6.38867 167.765 6.38053 168.172 6.36426C168.611 6.34798 169.336 6.33171 170.345 6.31543C171.354 6.28288 172.412 6.2666 173.519 6.2666C174.593 6.2666 175.439 6.2666 176.058 6.2666C176.692 6.2666 177.164 6.29102 177.474 6.33984C177.783 6.3724 178.011 6.4375 178.157 6.53516C178.32 6.61654 178.475 6.73047 178.621 6.87695C178.816 7.10482 178.914 7.30827 178.914 7.4873C178.93 7.66634 178.938 7.78841 178.938 7.85352C178.938 8.09766 178.873 8.32552 178.743 8.53711C178.369 9.04167 177.962 9.29395 177.522 9.29395C177.246 9.29395 176.961 9.19629 176.668 9.00098L176.277 8.70801L173.104 8.78125C172.176 8.79753 171.159 8.83008 170.052 8.87891C168.961 8.91146 168.034 8.94401 167.269 8.97656L164.632 9.12305L164.412 9.3916C164.331 9.48926 164.176 9.70898 163.948 10.0508C163.72 10.3763 163.46 10.7588 163.167 11.1982C161.507 13.7048 160.083 16.2601 158.895 18.8643C157.723 21.4684 157.031 23.5843 156.819 25.2119C156.803 25.3584 156.795 25.4805 156.795 25.5781C156.795 25.7246 156.819 25.8223 156.868 25.8711C156.884 25.8874 156.909 25.8955 156.941 25.8955C157.072 25.8955 157.275 25.8223 157.552 25.6758C158.349 25.3503 159.334 24.7643 160.506 23.918C161.678 23.0716 163.232 21.68 165.169 19.7432C166.276 18.6527 167.171 17.7819 167.854 17.1309C168.392 16.6751 168.839 16.4473 169.197 16.4473H169.295C169.686 16.5124 169.889 16.6589 169.905 16.8867C169.922 17.0983 169.93 17.2122 169.93 17.2285C169.93 17.6354 169.71 18.1156 169.271 18.6689C168.668 19.3525 167.553 20.4919 165.926 22.0869C164.314 23.682 162.988 24.9189 161.946 25.7979C160.905 26.6605 159.952 27.3115 159.09 27.751C158.178 28.2393 157.373 28.4834 156.673 28.4834C156.364 28.4834 156.079 28.4346 155.818 28.3369ZM166.951 19.1328C167.326 17.5215 167.952 16.016 168.831 14.6162C169.726 13.2002 170.719 12.126 171.81 11.3936C172.64 10.889 173.445 10.6367 174.227 10.6367C174.389 10.6367 174.552 10.6449 174.715 10.6611C175.659 10.7913 176.359 11.2715 176.814 12.1016C176.977 12.4759 177.059 12.8665 177.059 13.2734C177.059 14.3965 176.416 15.6253 175.13 16.96C173.812 18.3271 172.583 19.0107 171.443 19.0107C171.167 19.0107 170.898 18.9701 170.638 18.8887C170.459 18.8398 170.296 18.7992 170.149 18.7666C170.003 18.7178 169.905 18.6934 169.856 18.6934C169.726 18.7096 169.612 18.9619 169.515 19.4502C169.417 19.9222 169.36 20.4674 169.344 21.0859V21.3301C169.344 22.2415 169.523 22.8031 169.881 23.0146C169.979 23.0798 170.101 23.1123 170.247 23.1123C170.638 23.1123 171.175 22.9007 171.858 22.4775C173.372 21.5661 174.707 20.6302 175.862 19.6699C177.018 18.6934 178.198 17.611 179.402 16.4229C180.021 15.8532 180.542 15.5684 180.965 15.5684H180.989C181.412 15.5846 181.632 15.7067 181.648 15.9346L181.673 16.252C181.673 16.6751 181.388 17.196 180.818 17.8145C180.607 18.0423 180.298 18.3678 179.891 18.791C179.5 19.1979 179.109 19.6048 178.719 20.0117C176.424 22.4206 174.292 24.1214 172.322 25.1143C171.508 25.4886 170.776 25.6758 170.125 25.6758C169.653 25.6758 169.23 25.5781 168.855 25.3828C167.944 24.9108 167.366 24.2435 167.122 23.3809C166.862 22.502 166.731 21.7207 166.731 21.0371C166.731 20.4349 166.805 19.8001 166.951 19.1328ZM172.127 16.1787C172.469 15.9834 172.868 15.6497 173.323 15.1777C173.779 14.6895 174.104 14.2663 174.3 13.9082C174.43 13.6478 174.495 13.4606 174.495 13.3467V13.3223C174.479 13.2083 174.373 13.1514 174.178 13.1514C173.722 13.1514 173.112 13.5257 172.347 14.2744C172.119 14.5023 171.883 14.7627 171.639 15.0557C171.411 15.3486 171.224 15.6009 171.077 15.8125C170.931 16.0241 170.857 16.1624 170.857 16.2275V16.252L170.955 16.2764C171.004 16.3089 171.061 16.3415 171.126 16.374C171.224 16.4066 171.329 16.4229 171.443 16.4229H171.541C171.671 16.3903 171.867 16.3089 172.127 16.1787ZM193.465 27.7266C192.798 27.401 192.399 26.7988 192.269 25.9199C192.236 25.6921 192.22 25.4479 192.22 25.1875C192.22 23.7227 192.732 21.68 193.758 19.0596C193.872 18.7829 193.953 18.555 194.002 18.376C194.067 18.1969 194.1 18.0911 194.1 18.0586V18.0342C194.067 18.0342 193.864 18.1725 193.489 18.4492C193.131 18.7096 192.675 19.0433 192.122 19.4502C191.292 20.085 190.649 20.5732 190.193 20.915C189.738 21.2406 189.404 21.4684 189.192 21.5986C188.981 21.7288 188.81 21.8102 188.68 21.8428C188.517 21.8753 188.362 21.8916 188.216 21.8916C187.858 21.8916 187.557 21.7858 187.312 21.5742C186.987 21.2975 186.824 20.9395 186.824 20.5C186.824 20.4186 186.832 20.3372 186.849 20.2559C186.865 20.1257 186.93 19.8896 187.044 19.5479C187.174 19.2061 187.321 18.8317 187.483 18.4248C187.841 17.5459 188.134 16.7728 188.362 16.1055C188.606 15.4219 188.729 15.0312 188.729 14.9336V14.9092C188.68 14.9092 188.525 14.9987 188.265 15.1777C187.972 15.3568 187.63 15.5928 187.239 15.8857C186.849 16.1624 186.474 16.4391 186.116 16.7158C184.684 17.8551 183.105 19.2956 181.38 21.0371C180.908 21.5091 180.493 21.9242 180.135 22.2822C179.777 22.624 179.549 22.8193 179.451 22.8682C179.272 22.9495 179.069 22.9902 178.841 22.9902H178.719C178.458 22.9902 178.239 22.9251 178.06 22.7949C177.701 22.5182 177.522 22.1683 177.522 21.7451C177.522 21.68 177.531 21.6149 177.547 21.5498C177.645 20.9639 178.442 19.1328 179.939 16.0566C180.216 15.4544 180.46 14.9173 180.672 14.4453C180.883 13.957 181.006 13.6315 181.038 13.4688C181.25 12.6712 181.551 12.2236 181.941 12.126C182.332 12.012 182.584 11.9551 182.698 11.9551C183.154 11.9551 183.528 12.1992 183.821 12.6875C183.903 12.834 183.943 13.0049 183.943 13.2002C183.943 13.2979 183.935 13.3955 183.919 13.4932C183.838 13.7861 183.626 14.2744 183.284 14.958C183.121 15.2998 182.991 15.5765 182.894 15.7881C182.812 15.9997 182.771 16.1217 182.771 16.1543C182.788 16.1543 182.853 16.1136 182.967 16.0322C183.081 15.9346 183.219 15.8206 183.382 15.6904C183.87 15.2673 184.424 14.8197 185.042 14.3477C185.677 13.8594 186.214 13.4688 186.653 13.1758C187.744 12.4596 188.484 12.069 188.875 12.0039C189.282 11.9388 189.55 11.9062 189.681 11.9062C190.169 11.9062 190.584 12.0853 190.926 12.4434C191.3 12.7363 191.487 13.2246 191.487 13.9082C191.487 14.5592 191.316 15.3893 190.975 16.3984C190.91 16.6263 190.853 16.8135 190.804 16.96C190.771 17.1064 190.755 17.1878 190.755 17.2041C190.771 17.2041 190.885 17.1309 191.097 16.9844C191.325 16.8216 191.601 16.6263 191.927 16.3984C193.066 15.5846 193.921 15.0394 194.49 14.7627C195.076 14.4697 195.548 14.3232 195.906 14.3232H196.077C196.582 14.3721 196.972 14.6488 197.249 15.1533C197.396 15.3649 197.469 15.5439 197.469 15.6904C197.469 15.8369 197.469 15.9264 197.469 15.959C197.469 16.2194 197.387 16.5938 197.225 17.082C197.046 17.6191 196.761 18.3841 196.37 19.377C195.475 21.6882 194.97 23.3727 194.856 24.4307C194.824 24.6585 194.808 24.805 194.808 24.8701C194.808 24.9352 194.808 24.9759 194.808 24.9922C194.808 25.041 194.816 25.0654 194.832 25.0654H194.881C194.897 25.0654 194.93 25.0573 194.979 25.041C195.613 24.6504 196.435 23.918 197.444 22.8438C198.47 21.7695 199.454 20.6872 200.398 19.5967C201.049 18.848 201.587 18.2458 202.01 17.79C202.547 17.2692 203.019 17.0088 203.426 17.0088H203.475C203.898 17.0088 204.126 17.1227 204.158 17.3506C204.207 17.5785 204.231 17.7249 204.231 17.79C204.231 18.1644 203.987 18.6201 203.499 19.1572C203.336 19.3525 203.092 19.6536 202.767 20.0605C202.441 20.4512 202.116 20.8581 201.79 21.2812C200.065 23.5436 198.616 25.2038 197.444 26.2617C196.289 27.3034 195.296 27.8649 194.466 27.9463C194.384 27.9626 194.303 27.9707 194.222 27.9707C194.14 27.9707 194.059 27.9626 193.978 27.9463C193.847 27.9137 193.676 27.8405 193.465 27.7266ZM212.483 25.749C212.386 25.7165 212.272 25.6758 212.142 25.627C212.011 25.5618 211.897 25.5049 211.8 25.4561C211.604 25.3584 211.377 25.1712 211.116 24.8945C210.856 24.6178 210.669 24.3656 210.555 24.1377C210.424 23.8773 210.319 23.5355 210.237 23.1123C210.14 22.6891 210.091 22.2904 210.091 21.916C210.14 20.028 210.766 18.1074 211.971 16.1543C213.175 14.2012 214.713 12.6305 216.585 11.4424C217.594 10.8076 218.619 10.4821 219.661 10.4658C219.791 10.4495 219.922 10.4414 220.052 10.4414C220.41 10.4414 220.703 10.4821 220.931 10.5635C221.256 10.6449 221.541 10.8239 221.785 11.1006C222.111 11.4261 222.273 11.6865 222.273 11.8818C222.273 12.0771 222.273 12.1829 222.273 12.1992C222.273 12.5573 222.127 12.8584 221.834 13.1025C221.606 13.2979 221.435 13.4036 221.321 13.4199C221.207 13.4199 221.134 13.4199 221.102 13.4199C220.906 13.4199 220.67 13.3548 220.394 13.2246C220.117 13.0781 219.848 13.0049 219.588 13.0049H219.515C219.254 13.0212 218.896 13.1432 218.44 13.3711C217.252 13.9408 216.137 14.8685 215.096 16.1543C214.07 17.4238 213.346 18.7585 212.923 20.1582C212.76 20.793 212.679 21.3626 212.679 21.8672V22.1113C212.695 22.6647 212.833 23.0309 213.094 23.21C213.289 23.3239 213.517 23.3809 213.777 23.3809C214.201 23.3809 214.721 23.2425 215.34 22.9658C216.333 22.5426 217.431 21.9079 218.636 21.0615C219.856 20.2152 221.045 19.3363 222.2 18.4248C223.356 17.4971 224.349 16.6833 225.179 15.9834C225.634 15.609 226.001 15.3079 226.277 15.0801C227.107 14.429 227.734 14.1035 228.157 14.1035C228.206 14.1035 228.255 14.1117 228.304 14.1279C228.662 14.1768 228.841 14.3721 228.841 14.7139C228.841 14.7627 228.833 14.8278 228.816 14.9092C228.735 15.3812 228.41 15.8613 227.84 16.3496C227.677 16.4961 227.425 16.7158 227.083 17.0088C226.757 17.2855 226.432 17.5703 226.106 17.8633C224.332 19.4421 222.973 20.6139 222.029 21.3789C221.102 22.1276 220.141 22.8275 219.148 23.4785C217.57 24.5365 216.268 25.2282 215.242 25.5537C214.754 25.7002 214.347 25.7897 214.021 25.8223C213.696 25.8385 213.476 25.8467 213.362 25.8467C213.004 25.8467 212.711 25.8141 212.483 25.749ZM225.472 25.3828C224.446 24.9922 223.86 24.3981 223.714 23.6006C223.551 22.7868 223.47 22.1764 223.47 21.7695C223.47 20.7441 223.681 19.5804 224.104 18.2783C224.576 16.8786 225.228 15.5684 226.058 14.3477C226.888 13.1107 227.767 12.1585 228.694 11.4912C229.573 10.8727 230.387 10.5635 231.136 10.5635C231.347 10.5635 231.551 10.5879 231.746 10.6367C232.625 10.8646 233.211 11.3691 233.504 12.1504C233.813 12.9154 233.968 13.6478 233.968 14.3477C233.968 14.9499 233.886 15.6172 233.724 16.3496C233.707 16.4473 233.699 16.5368 233.699 16.6182C233.699 16.6833 233.707 16.7158 233.724 16.7158C233.854 16.7158 234.122 16.6833 234.529 16.6182C234.936 16.5368 235.368 16.4391 235.823 16.3252C236.279 16.195 236.67 16.0404 236.995 15.8613C237.549 15.5684 238.004 15.4219 238.362 15.4219C238.509 15.4219 238.639 15.4463 238.753 15.4951C239.046 15.609 239.192 15.8044 239.192 16.0811C239.192 16.195 239.176 16.3089 239.144 16.4229C238.981 16.8786 238.444 17.3587 237.532 17.8633C236.963 18.1562 236.246 18.4736 235.384 18.8154C234.521 19.1572 233.715 19.3688 232.967 19.4502C232.853 19.4502 232.755 19.4909 232.674 19.5723C232.592 19.6536 232.487 19.8327 232.356 20.1094C231.95 20.8743 231.469 21.6312 230.916 22.3799C230.363 23.1123 229.842 23.6901 229.354 24.1133C228.23 25.041 227.205 25.5049 226.277 25.5049C226.001 25.5049 225.732 25.4642 225.472 25.3828ZM230.94 16.9355C230.973 16.8542 231.014 16.7077 231.062 16.4961C231.128 16.2682 231.185 16.016 231.233 15.7393C231.299 15.4626 231.347 15.2103 231.38 14.9824C231.412 14.7871 231.429 14.5999 231.429 14.4209C231.429 14.2419 231.412 14.0628 231.38 13.8838C231.347 13.5094 231.282 13.2653 231.185 13.1514C231.152 13.1351 231.119 13.127 231.087 13.127C230.957 13.127 230.753 13.2083 230.477 13.3711C230.118 13.599 229.76 13.8919 229.402 14.25L228.719 14.9092L228.841 15.4219C228.922 15.8125 229.069 16.1136 229.28 16.3252C229.508 16.5368 229.866 16.7158 230.354 16.8623C230.517 16.9274 230.623 16.9681 230.672 16.9844C230.737 16.9844 230.778 16.9844 230.794 16.9844H230.867C230.883 16.9844 230.908 16.9681 230.94 16.9355ZM227.254 22.502C227.4 22.4043 227.571 22.2741 227.767 22.1113C227.962 21.9323 228.125 21.7695 228.255 21.623C228.385 21.4766 228.54 21.2894 228.719 21.0615C228.898 20.8174 229.069 20.5732 229.231 20.3291C229.41 20.085 229.549 19.8815 229.646 19.7188C229.744 19.556 229.793 19.4583 229.793 19.4258C229.777 19.4095 229.712 19.3851 229.598 19.3525C229.484 19.3037 229.345 19.2467 229.183 19.1816C228.841 19.0514 228.491 18.8724 228.133 18.6445C227.775 18.4004 227.506 18.1725 227.327 17.9609L227.083 17.668L226.863 18.1562C226.294 19.556 226.009 20.7848 226.009 21.8428V22.0137C226.041 22.5345 226.106 22.8193 226.204 22.8682C226.302 22.917 226.367 22.9414 226.399 22.9414C226.578 22.9414 226.863 22.7949 227.254 22.502ZM251.229 27.7266C250.561 27.401 250.162 26.7988 250.032 25.9199C250 25.6921 249.983 25.4479 249.983 25.1875C249.983 23.7227 250.496 21.68 251.521 19.0596C251.635 18.7829 251.717 18.555 251.766 18.376C251.831 18.1969 251.863 18.0911 251.863 18.0586V18.0342C251.831 18.0342 251.627 18.1725 251.253 18.4492C250.895 18.7096 250.439 19.0433 249.886 19.4502C249.056 20.085 248.413 20.5732 247.957 20.915C247.501 21.2406 247.168 21.4684 246.956 21.5986C246.744 21.7288 246.574 21.8102 246.443 21.8428C246.281 21.8753 246.126 21.8916 245.979 21.8916C245.621 21.8916 245.32 21.7858 245.076 21.5742C244.751 21.2975 244.588 20.9395 244.588 20.5C244.588 20.4186 244.596 20.3372 244.612 20.2559C244.629 20.1257 244.694 19.8896 244.808 19.5479C244.938 19.2061 245.084 18.8317 245.247 18.4248C245.605 17.5459 245.898 16.7728 246.126 16.1055C246.37 15.4219 246.492 15.0312 246.492 14.9336V14.9092C246.443 14.9092 246.289 14.9987 246.028 15.1777C245.735 15.3568 245.394 15.5928 245.003 15.8857C244.612 16.1624 244.238 16.4391 243.88 16.7158C242.448 17.8551 240.869 19.2956 239.144 21.0371C238.672 21.5091 238.257 21.9242 237.898 22.2822C237.54 22.624 237.312 22.8193 237.215 22.8682C237.036 22.9495 236.832 22.9902 236.604 22.9902H236.482C236.222 22.9902 236.002 22.9251 235.823 22.7949C235.465 22.5182 235.286 22.1683 235.286 21.7451C235.286 21.68 235.294 21.6149 235.311 21.5498C235.408 20.9639 236.206 19.1328 237.703 16.0566C237.98 15.4544 238.224 14.9173 238.436 14.4453C238.647 13.957 238.769 13.6315 238.802 13.4688C239.013 12.6712 239.314 12.2236 239.705 12.126C240.096 12.012 240.348 11.9551 240.462 11.9551C240.918 11.9551 241.292 12.1992 241.585 12.6875C241.666 12.834 241.707 13.0049 241.707 13.2002C241.707 13.2979 241.699 13.3955 241.683 13.4932C241.601 13.7861 241.39 14.2744 241.048 14.958C240.885 15.2998 240.755 15.5765 240.657 15.7881C240.576 15.9997 240.535 16.1217 240.535 16.1543C240.551 16.1543 240.617 16.1136 240.73 16.0322C240.844 15.9346 240.983 15.8206 241.146 15.6904C241.634 15.2673 242.187 14.8197 242.806 14.3477C243.44 13.8594 243.978 13.4688 244.417 13.1758C245.507 12.4596 246.248 12.069 246.639 12.0039C247.046 11.9388 247.314 11.9062 247.444 11.9062C247.933 11.9062 248.348 12.0853 248.689 12.4434C249.064 12.7363 249.251 13.2246 249.251 13.9082C249.251 14.5592 249.08 15.3893 248.738 16.3984C248.673 16.6263 248.616 16.8135 248.567 16.96C248.535 17.1064 248.519 17.1878 248.519 17.2041C248.535 17.2041 248.649 17.1309 248.86 16.9844C249.088 16.8216 249.365 16.6263 249.69 16.3984C250.83 15.5846 251.684 15.0394 252.254 14.7627C252.84 14.4697 253.312 14.3232 253.67 14.3232H253.841C254.345 14.3721 254.736 14.6488 255.013 15.1533C255.159 15.3649 255.232 15.5439 255.232 15.6904C255.232 15.8369 255.232 15.9264 255.232 15.959C255.232 16.2194 255.151 16.5938 254.988 17.082C254.809 17.6191 254.524 18.3841 254.134 19.377C253.239 21.6882 252.734 23.3727 252.62 24.4307C252.588 24.6585 252.571 24.805 252.571 24.8701C252.571 24.9352 252.571 24.9759 252.571 24.9922C252.571 25.041 252.579 25.0654 252.596 25.0654H252.645C252.661 25.0654 252.693 25.0573 252.742 25.041C253.377 24.6504 254.199 23.918 255.208 22.8438C256.233 21.7695 257.218 20.6872 258.162 19.5967C258.813 18.848 259.35 18.2458 259.773 17.79C260.311 17.2692 260.783 17.0088 261.189 17.0088H261.238C261.661 17.0088 261.889 17.1227 261.922 17.3506C261.971 17.5785 261.995 17.7249 261.995 17.79C261.995 18.1644 261.751 18.6201 261.263 19.1572C261.1 19.3525 260.856 19.6536 260.53 20.0605C260.205 20.4512 259.879 20.8581 259.554 21.2812C257.828 23.5436 256.38 25.2038 255.208 26.2617C254.052 27.3034 253.06 27.8649 252.229 27.9463C252.148 27.9626 252.067 27.9707 251.985 27.9707C251.904 27.9707 251.823 27.9626 251.741 27.9463C251.611 27.9137 251.44 27.8405 251.229 27.7266ZM274.031 27.7266C273.364 27.401 272.965 26.7988 272.835 25.9199C272.802 25.6921 272.786 25.4479 272.786 25.1875C272.786 23.7227 273.299 21.68 274.324 19.0596C274.438 18.7829 274.52 18.555 274.568 18.376C274.633 18.1969 274.666 18.0911 274.666 18.0586V18.0342C274.633 18.0342 274.43 18.1725 274.056 18.4492C273.698 18.7096 273.242 19.0433 272.688 19.4502C271.858 20.085 271.215 20.5732 270.76 20.915C270.304 21.2406 269.97 21.4684 269.759 21.5986C269.547 21.7288 269.376 21.8102 269.246 21.8428C269.083 21.8753 268.929 21.8916 268.782 21.8916C268.424 21.8916 268.123 21.7858 267.879 21.5742C267.553 21.2975 267.391 20.9395 267.391 20.5C267.391 20.4186 267.399 20.3372 267.415 20.2559C267.431 20.1257 267.496 19.8896 267.61 19.5479C267.741 19.2061 267.887 18.8317 268.05 18.4248C268.408 17.5459 268.701 16.7728 268.929 16.1055C269.173 15.4219 269.295 15.0312 269.295 14.9336V14.9092C269.246 14.9092 269.091 14.9987 268.831 15.1777C268.538 15.3568 268.196 15.5928 267.806 15.8857C267.415 16.1624 267.041 16.4391 266.683 16.7158C265.25 17.8551 263.672 19.2956 261.946 21.0371C261.474 21.5091 261.059 21.9242 260.701 22.2822C260.343 22.624 260.115 22.8193 260.018 22.8682C259.839 22.9495 259.635 22.9902 259.407 22.9902H259.285C259.025 22.9902 258.805 22.9251 258.626 22.7949C258.268 22.5182 258.089 22.1683 258.089 21.7451C258.089 21.68 258.097 21.6149 258.113 21.5498C258.211 20.9639 259.008 19.1328 260.506 16.0566C260.783 15.4544 261.027 14.9173 261.238 14.4453C261.45 13.957 261.572 13.6315 261.604 13.4688C261.816 12.6712 262.117 12.2236 262.508 12.126C262.898 12.012 263.151 11.9551 263.265 11.9551C263.72 11.9551 264.095 12.1992 264.388 12.6875C264.469 12.834 264.51 13.0049 264.51 13.2002C264.51 13.2979 264.502 13.3955 264.485 13.4932C264.404 13.7861 264.192 14.2744 263.851 14.958C263.688 15.2998 263.558 15.5765 263.46 15.7881C263.379 15.9997 263.338 16.1217 263.338 16.1543C263.354 16.1543 263.419 16.1136 263.533 16.0322C263.647 15.9346 263.785 15.8206 263.948 15.6904C264.437 15.2673 264.99 14.8197 265.608 14.3477C266.243 13.8594 266.78 13.4688 267.22 13.1758C268.31 12.4596 269.051 12.069 269.441 12.0039C269.848 11.9388 270.117 11.9062 270.247 11.9062C270.735 11.9062 271.15 12.0853 271.492 12.4434C271.867 12.7363 272.054 13.2246 272.054 13.9082C272.054 14.5592 271.883 15.3893 271.541 16.3984C271.476 16.6263 271.419 16.8135 271.37 16.96C271.338 17.1064 271.321 17.1878 271.321 17.2041C271.338 17.2041 271.451 17.1309 271.663 16.9844C271.891 16.8216 272.168 16.6263 272.493 16.3984C273.632 15.5846 274.487 15.0394 275.057 14.7627C275.643 14.4697 276.115 14.3232 276.473 14.3232H276.644C277.148 14.3721 277.539 14.6488 277.815 15.1533C277.962 15.3649 278.035 15.5439 278.035 15.6904C278.035 15.8369 278.035 15.9264 278.035 15.959C278.035 16.2194 277.954 16.5938 277.791 17.082C277.612 17.6191 277.327 18.3841 276.937 19.377C276.041 21.6882 275.537 23.3727 275.423 24.4307C275.39 24.6585 275.374 24.805 275.374 24.8701C275.374 24.9352 275.374 24.9759 275.374 24.9922C275.374 25.041 275.382 25.0654 275.398 25.0654H275.447C275.464 25.0654 275.496 25.0573 275.545 25.041C276.18 24.6504 277.002 23.918 278.011 22.8438C279.036 21.7695 280.021 20.6872 280.965 19.5967C281.616 18.848 282.153 18.2458 282.576 17.79C283.113 17.2692 283.585 17.0088 283.992 17.0088H284.041C284.464 17.0088 284.692 17.1227 284.725 17.3506C284.773 17.5785 284.798 17.7249 284.798 17.79C284.798 18.1644 284.554 18.6201 284.065 19.1572C283.903 19.3525 283.659 19.6536 283.333 20.0605C283.007 20.4512 282.682 20.8581 282.356 21.2812C280.631 23.5436 279.183 25.2038 278.011 26.2617C276.855 27.3034 275.862 27.8649 275.032 27.9463C274.951 27.9626 274.869 27.9707 274.788 27.9707C274.707 27.9707 274.625 27.9626 274.544 27.9463C274.414 27.9137 274.243 27.8405 274.031 27.7266ZM291.39 27.4092C290.56 27.0511 290.145 26.3024 290.145 25.1631V25.041C290.161 23.7227 290.657 21.9079 291.634 19.5967C291.78 19.2874 291.902 19.0189 292 18.791L292.122 18.4492C292.106 18.4492 291.91 18.5876 291.536 18.8643C291.146 19.141 290.665 19.4909 290.096 19.9141C288.191 21.3789 286.808 22.3392 285.945 22.7949C285.099 23.2344 284.424 23.4541 283.919 23.4541C283.772 23.4541 283.634 23.4378 283.504 23.4053C282.413 23.1286 281.868 22.2904 281.868 20.8906C281.868 20.028 282.08 18.9456 282.503 17.6436C282.975 16.2601 283.577 14.9743 284.31 13.7861C285.058 12.598 285.726 11.8493 286.312 11.54C286.572 11.4261 286.816 11.3691 287.044 11.3691C287.256 11.3691 287.459 11.418 287.654 11.5156C288.061 11.6947 288.346 12.0365 288.509 12.541C288.541 12.6549 288.558 12.7607 288.558 12.8584C288.558 13.1025 288.493 13.3223 288.362 13.5176C288.167 13.8105 287.89 13.9896 287.532 14.0547C287.435 14.071 287.345 14.1035 287.264 14.1523C287.182 14.1849 287.101 14.2581 287.02 14.3721C286.938 14.486 286.824 14.6488 286.678 14.8604C286.32 15.3812 286.059 15.7962 285.896 16.1055C285.734 16.4147 285.547 16.8298 285.335 17.3506C284.863 18.4899 284.562 19.4746 284.432 20.3047L284.358 20.7686L284.871 20.5C285.311 20.2559 286.051 19.7513 287.093 18.9863C288.151 18.2214 289.339 17.318 290.657 16.2764C291.683 15.4788 292.505 14.8441 293.123 14.3721C293.742 13.9001 294.222 13.5501 294.563 13.3223C294.905 13.0944 295.158 12.9561 295.32 12.9072C295.499 12.8421 295.654 12.8096 295.784 12.8096H295.882C296.614 12.8258 297.046 13.2165 297.176 13.9814C297.192 14.0303 297.2 14.0791 297.2 14.1279C297.2 14.3232 297.135 14.5592 297.005 14.8359C296.858 15.2103 296.549 15.7799 296.077 16.5449C295.621 17.3262 295.166 18.1725 294.71 19.084C294.271 19.9792 293.904 20.7848 293.611 21.501C293.449 21.9242 293.294 22.3799 293.147 22.8682C293.001 23.3402 292.887 23.7308 292.806 24.04C292.741 24.333 292.708 24.5283 292.708 24.626C292.708 24.6748 292.716 24.7074 292.732 24.7236H292.806C292.985 24.7236 293.424 24.5039 294.124 24.0645C294.922 23.5436 295.76 22.8193 296.639 21.8916C297.371 21.0941 298.095 20.2884 298.812 19.4746C299.43 18.7422 300.065 18.026 300.716 17.3262C301.285 16.724 301.774 16.4229 302.181 16.4229H302.229C302.636 16.4554 302.848 16.5938 302.864 16.8379C302.881 17.0658 302.889 17.196 302.889 17.2285C302.889 17.6517 302.677 18.14 302.254 18.6934C302.075 18.8887 301.888 19.1084 301.692 19.3525C300.911 20.3128 299.967 21.4115 298.86 22.6484C297.754 23.8854 296.622 24.984 295.467 25.9443C294.311 26.9046 293.278 27.4417 292.366 27.5557H291.829C291.683 27.5231 291.536 27.4743 291.39 27.4092ZM308.382 27.2139C307.34 26.8883 306.819 26.0339 306.819 24.6504C306.819 24.4225 306.836 24.1702 306.868 23.8936C306.966 22.6566 307.592 20.5732 308.748 17.6436C308.943 17.1715 309.09 16.7809 309.188 16.4717C309.301 16.1624 309.358 15.9834 309.358 15.9346V15.9102H309.334C309.285 15.9102 309.147 15.9753 308.919 16.1055C308.642 16.252 308.317 16.4473 307.942 16.6914C307.584 16.9193 307.226 17.1553 306.868 17.3994C305.664 18.2458 304.297 19.4095 302.767 20.8906L301.912 21.7451C301.391 22.266 301.009 22.6159 300.765 22.7949C300.521 22.9577 300.301 23.0391 300.105 23.0391C299.992 23.0391 299.886 23.0228 299.788 22.9902C299.267 22.8438 299.007 22.4531 299.007 21.8184V21.6963C299.072 21.2406 299.479 20.1663 300.228 18.4736C300.96 16.7809 301.749 15.1045 302.596 13.4443C303.442 11.7679 304.044 10.7344 304.402 10.3438C304.565 10.2135 304.695 10.124 304.793 10.0752C304.907 10.0264 305.045 10.002 305.208 10.002C305.582 10.002 305.9 10.1322 306.16 10.3926C306.421 10.653 306.551 10.9622 306.551 11.3203C306.551 11.3854 306.51 11.5238 306.429 11.7354C306.347 11.9469 306.242 12.1748 306.111 12.4189C305.981 12.6794 305.794 13.0293 305.55 13.4688C305.322 13.9082 305.094 14.3477 304.866 14.7871L304.085 16.2764L304.817 15.7393C306.461 14.5348 307.885 13.6885 309.09 13.2002C309.594 13.0049 310.05 12.9072 310.457 12.9072C310.913 12.9072 311.312 13.0293 311.653 13.2734C312.076 13.5664 312.288 14.0384 312.288 14.6895C312.288 14.9987 312.239 15.3405 312.142 15.7148C311.995 16.2845 311.702 17.1309 311.263 18.2539C310.026 21.4277 309.407 23.4134 309.407 24.2109V24.333L309.432 24.6016L310.066 24.1377C311.141 23.3402 312.158 22.4613 313.118 21.501C314.095 20.5244 315.047 19.5316 315.975 18.5225C316.528 17.9365 317.073 17.3587 317.61 16.7891C318.05 16.3659 318.432 16.1543 318.758 16.1543C318.823 16.1543 318.88 16.1624 318.929 16.1787C319.303 16.2438 319.515 16.3984 319.563 16.6426C319.612 16.8704 319.637 17.0251 319.637 17.1064C319.637 17.4157 319.507 17.7412 319.246 18.083C319.067 18.2946 318.44 18.9945 317.366 20.1826C316.797 20.8174 316.219 21.4603 315.633 22.1113C315.063 22.7461 314.616 23.2507 314.29 23.625C312.076 26.0664 310.278 27.2871 308.895 27.2871C308.715 27.2871 308.545 27.2627 308.382 27.2139ZM323.592 7.92676C323.201 7.68262 322.998 7.44661 322.981 7.21875C322.965 6.99089 322.957 6.85254 322.957 6.80371C322.957 6.47819 323.063 6.17708 323.274 5.90039C323.535 5.57487 323.901 5.41211 324.373 5.41211C324.943 5.41211 325.301 5.57487 325.447 5.90039C325.61 6.22591 325.691 6.48633 325.691 6.68164C325.691 6.95833 325.586 7.24316 325.374 7.53613C325.032 7.91048 324.666 8.09766 324.275 8.09766C324.048 8.09766 323.82 8.04069 323.592 7.92676ZM315.853 22.8438C315.787 22.5182 315.755 22.1683 315.755 21.7939C315.755 20.7197 316.056 19.4258 316.658 17.9121C317.244 16.5612 317.96 15.2591 318.807 14.0059C319.669 12.7526 320.361 11.9795 320.882 11.6865C321.11 11.5889 321.329 11.54 321.541 11.54C321.769 11.54 321.972 11.597 322.151 11.7109C322.526 11.9551 322.713 12.3294 322.713 12.834C322.713 12.9805 322.697 13.1025 322.664 13.2002C322.648 13.2816 322.591 13.3792 322.493 13.4932C322.412 13.6071 322.273 13.7699 322.078 13.9814C321.134 15.0394 320.296 16.2845 319.563 17.7168C318.847 19.1491 318.44 20.3698 318.343 21.3789C318.326 21.5579 318.318 21.7044 318.318 21.8184C318.318 22.0137 318.343 22.1276 318.392 22.1602H318.44C318.571 22.1602 318.831 22.0544 319.222 21.8428C322.607 20.0687 325.325 18.0749 327.376 15.8613C327.799 15.4544 328.157 15.251 328.45 15.251C328.564 15.251 328.67 15.2835 328.768 15.3486C329.028 15.5114 329.158 15.7637 329.158 16.1055C329.158 16.2194 329.142 16.3496 329.109 16.4961C328.979 16.8379 328.621 17.3262 328.035 17.9609C327.449 18.5957 326.823 19.2142 326.155 19.8164C325.504 20.4186 325.032 20.8418 324.739 21.0859C323.16 22.3717 321.744 23.3646 320.491 24.0645C319.726 24.4876 318.953 24.6992 318.172 24.6992C318.042 24.6992 317.911 24.6911 317.781 24.6748C316.87 24.5771 316.227 23.9668 315.853 22.8438ZM325.594 28.3369C325.317 28.2393 325.04 28.0358 324.764 27.7266C324.471 27.401 324.275 27.0837 324.178 26.7744C324.096 26.4814 324.056 26.1234 324.056 25.7002V25.3096C324.072 24.7236 324.153 24.1214 324.3 23.5029C325.325 19.6292 327.311 15.3405 330.257 10.6367C330.468 10.2949 330.631 10.0182 330.745 9.80664C330.875 9.59505 330.94 9.46484 330.94 9.41602C330.924 9.41602 330.778 9.43229 330.501 9.46484C330.241 9.4974 329.923 9.52995 329.549 9.5625C327.579 9.79036 326.465 9.99382 326.204 10.1729C326.058 10.2542 325.887 10.2949 325.691 10.2949H325.594C325.35 10.2949 325.122 10.2298 324.91 10.0996C324.52 9.82292 324.324 9.5625 324.324 9.31836C324.324 9.07422 324.324 8.94401 324.324 8.92773C324.324 8.47201 324.511 8.12207 324.886 7.87793C325.488 7.51986 327.636 7.16992 331.331 6.82812L332.942 6.70605L333.235 6.31543C333.317 6.23405 333.463 6.06315 333.675 5.80273C333.903 5.52604 334.155 5.2168 334.432 4.875L334.773 4.48438C335.652 3.42643 336.344 2.62891 336.849 2.0918C337.369 1.55469 337.752 1.22917 337.996 1.11523C338.24 1.0013 338.444 0.944336 338.606 0.944336C338.737 0.944336 338.859 0.96875 338.973 1.01758C339.542 1.26172 339.827 1.67676 339.827 2.2627C339.827 2.3929 339.811 2.50684 339.778 2.60449C339.746 2.70215 339.656 2.83236 339.51 2.99512C339.38 3.15788 339.16 3.39388 338.851 3.70312C338.541 4.04492 338.208 4.41927 337.85 4.82617C337.492 5.2168 337.174 5.57487 336.897 5.90039C336.637 6.20964 336.507 6.38053 336.507 6.41309L336.922 6.38867C337.199 6.38867 337.54 6.38053 337.947 6.36426C338.387 6.34798 339.111 6.33171 340.12 6.31543C341.129 6.28288 342.187 6.2666 343.294 6.2666C344.368 6.2666 345.215 6.2666 345.833 6.2666C346.468 6.2666 346.94 6.29102 347.249 6.33984C347.558 6.3724 347.786 6.4375 347.933 6.53516C348.095 6.61654 348.25 6.73047 348.396 6.87695C348.592 7.10482 348.689 7.30827 348.689 7.4873C348.706 7.66634 348.714 7.78841 348.714 7.85352C348.714 8.09766 348.649 8.32552 348.519 8.53711C348.144 9.04167 347.737 9.29395 347.298 9.29395C347.021 9.29395 346.736 9.19629 346.443 9.00098L346.053 8.70801L342.879 8.78125C341.951 8.79753 340.934 8.83008 339.827 8.87891C338.737 8.91146 337.809 8.94401 337.044 8.97656L334.407 9.12305L334.188 9.3916C334.106 9.48926 333.951 9.70898 333.724 10.0508C333.496 10.3763 333.235 10.7588 332.942 11.1982C331.282 13.7048 329.858 16.2601 328.67 18.8643C327.498 21.4684 326.806 23.5843 326.595 25.2119C326.578 25.3584 326.57 25.4805 326.57 25.5781C326.57 25.7246 326.595 25.8223 326.644 25.8711C326.66 25.8874 326.684 25.8955 326.717 25.8955C326.847 25.8955 327.05 25.8223 327.327 25.6758C328.125 25.3503 329.109 24.7643 330.281 23.918C331.453 23.0716 333.007 21.68 334.944 19.7432C336.051 18.6527 336.946 17.7819 337.63 17.1309C338.167 16.6751 338.615 16.4473 338.973 16.4473H339.07C339.461 16.5124 339.664 16.6589 339.681 16.8867C339.697 17.0983 339.705 17.2122 339.705 17.2285C339.705 17.6354 339.485 18.1156 339.046 18.6689C338.444 19.3525 337.329 20.4919 335.701 22.0869C334.09 23.682 332.763 24.9189 331.722 25.7979C330.68 26.6605 329.728 27.3115 328.865 27.751C327.954 28.2393 327.148 28.4834 326.448 28.4834C326.139 28.4834 325.854 28.4346 325.594 28.3369ZM332.796 38.5664C332.015 38.1595 331.624 37.5573 331.624 36.7598C331.624 36.304 331.754 35.7832 332.015 35.1973C332.633 33.8626 334.155 32.1292 336.58 29.9971C338.989 27.8486 342.48 25.1387 347.054 21.8672L348.494 20.8418L348.836 19.792C348.934 19.4827 349.031 19.1735 349.129 18.8643C349.227 18.555 349.292 18.3109 349.324 18.1318C349.373 17.904 349.406 17.6761 349.422 17.4482C349.454 17.2204 349.471 17.0169 349.471 16.8379C349.471 16.6751 349.446 16.5938 349.397 16.5938C349.316 16.5938 348.942 16.8298 348.274 17.3018C347.607 17.7575 346.769 18.3597 345.76 19.1084C344.002 20.4268 342.643 21.3708 341.683 21.9404C340.739 22.5101 339.965 22.8519 339.363 22.9658C339.184 22.9984 339.005 23.0146 338.826 23.0146C338.029 23.0146 337.435 22.6566 337.044 21.9404C336.897 21.68 336.824 21.4277 336.824 21.1836C336.824 20.9395 336.824 20.793 336.824 20.7441C336.824 20.3535 336.881 19.9629 336.995 19.5723C337.5 17.9935 338.606 15.8776 340.315 13.2246C340.853 12.4108 341.268 11.8411 341.561 11.5156C341.87 11.1901 342.155 10.9948 342.415 10.9297C342.545 10.8971 342.659 10.8809 342.757 10.8809H342.83C342.944 10.8809 343.082 10.9297 343.245 11.0273C343.506 11.1413 343.685 11.2959 343.782 11.4912C343.896 11.6702 343.969 11.9714 344.002 12.3945C344.018 12.5898 344.026 12.7526 344.026 12.8828V13.0537C344.01 13.2165 343.969 13.3711 343.904 13.5176C343.807 13.7292 343.66 13.9082 343.465 14.0547C343.27 14.1849 343.066 14.25 342.854 14.25C342.757 14.25 342.521 14.543 342.146 15.1289C341.772 15.6986 341.373 16.3659 340.95 17.1309C340.527 17.8796 340.185 18.5387 339.925 19.1084C339.664 19.6618 339.534 20.0036 339.534 20.1338V20.1826H339.559C339.868 20.1826 341.463 19.1165 344.344 16.9844C344.93 16.5449 345.475 16.1462 345.979 15.7881C346.484 15.4137 346.826 15.1615 347.005 15.0312C348.079 14.3151 349.007 13.957 349.788 13.957C350.341 13.957 350.813 14.1279 351.204 14.4697C351.774 14.9743 352.059 15.7555 352.059 16.8135C352.059 17.0413 352.042 17.2773 352.01 17.5215C352.01 17.5866 352.002 17.6436 351.985 17.6924C351.969 17.8551 351.953 18.0179 351.937 18.1807C351.92 18.3434 351.904 18.4655 351.888 18.5469C351.888 18.6283 351.888 18.6852 351.888 18.7178V18.791C351.904 18.7747 352.107 18.6364 352.498 18.376C352.889 18.0993 353.377 17.7575 353.963 17.3506C354.777 16.7809 355.436 16.3333 355.94 16.0078C356.478 15.6986 356.941 15.5439 357.332 15.5439C357.43 15.5439 357.527 15.5521 357.625 15.5684C358.064 15.6823 358.284 15.9346 358.284 16.3252V16.3984C358.252 16.8216 357.837 17.3262 357.039 17.9121C356.746 18.1237 356.25 18.4736 355.55 18.9619C354.85 19.4502 354.109 19.971 353.328 20.5244L350.569 22.4775L350.203 23.332C349.78 24.3086 349.235 25.3828 348.567 26.5547C347.916 27.7103 347.265 28.7601 346.614 29.7041C344.922 32.0316 343.156 33.9521 341.316 35.4658C339.607 36.8005 338.143 37.6875 336.922 38.127C335.701 38.5827 334.741 38.8105 334.041 38.8105C333.569 38.8105 333.154 38.7292 332.796 38.5664ZM335.628 35.8809C338.655 34.6927 341.561 32.2269 344.344 28.4834C344.572 28.1579 344.816 27.7998 345.076 27.4092C345.353 27.0023 345.581 26.6442 345.76 26.335C345.939 26.0257 346.028 25.8548 346.028 25.8223C345.963 25.8385 345.524 26.1478 344.71 26.75C343.896 27.3522 342.96 28.0684 341.902 28.8984C340.861 29.7122 339.941 30.4447 339.144 31.0957C338.118 31.9746 337.15 32.8942 336.238 33.8545C335.311 34.8148 334.7 35.5553 334.407 36.0762C334.375 36.125 334.358 36.1576 334.358 36.1738C334.358 36.1901 334.367 36.1982 334.383 36.1982H334.627C334.725 36.1657 334.871 36.1169 335.066 36.0518C335.245 36.0029 335.433 35.946 335.628 35.8809Z" fill="#F3EFE3"/>
</svg>
