<svg width="994" height="356" viewBox="0 0 994 356" fill="none" xmlns="http://www.w3.org/2000/svg">
<path d="M20.5 184.3C17.0333 184.3 14.2667 183.367 12.2 181.5C10.1333 179.633 9.1 176.767 9.1 172.9C9.1 171.633 9.1 170.4 9.1 169.2C9.16667 167.933 9.2 166.333 9.2 164.4V140.8H0.9V136.4L9.8 135.3L12.4 121.9H18.4L17.8 135.5H31.3V140.8H17.7V171.8C17.7 174.333 18.2 176.2 19.2 177.4C20.2 178.533 21.5333 179.1 23.2 179.1C24.3333 179.1 25.4 178.867 26.4 178.4C27.4667 177.933 28.6333 177.267 29.9 176.4L32.3 179C29.5667 182.533 25.6333 184.3 20.5 184.3ZM35.5195 183V179.4L43.0195 178C43.0862 175.467 43.1195 172.733 43.1195 169.8C43.1862 166.8 43.2195 164.2 43.2195 162V118.1L35.0195 117.1V113.6L50.3195 109.1L51.7195 109.9L51.3195 124.1V143.4C53.7862 140.667 56.6529 138.467 59.9195 136.8C63.1862 135.067 66.4195 134.2 69.6195 134.2C73.9529 134.2 77.1529 135.667 79.2195 138.6C81.3529 141.467 82.4195 146.167 82.4195 152.7V162C82.4195 164.267 82.4195 166.867 82.4195 169.8C82.4862 172.733 82.5529 175.467 82.6195 178L89.6195 179.4V183H66.4195V179.4L73.7195 178.1C73.7862 175.567 73.8195 172.833 73.8195 169.9C73.8862 166.9 73.9195 164.267 73.9195 162V153.5C73.9195 148.9 73.2862 145.733 72.0195 144C70.7529 142.267 68.6529 141.4 65.7195 141.4C63.2529 141.4 60.9195 141.9 58.7195 142.9C56.5195 143.9 54.1529 145.567 51.6195 147.9V162C51.6195 164.2 51.6195 166.8 51.6195 169.8C51.6862 172.733 51.7529 175.467 51.8195 178L58.7195 179.4V183H35.5195ZM119.478 138.8C117.611 138.8 115.711 139.333 113.778 140.4C111.911 141.467 110.278 143.167 108.878 145.5C107.545 147.833 106.678 150.933 106.278 154.8H124.478C126.878 154.8 128.445 154.3 129.178 153.3C129.978 152.3 130.378 151.067 130.378 149.6C130.378 147.667 129.878 145.9 128.878 144.3C127.945 142.633 126.645 141.3 124.978 140.3C123.378 139.3 121.545 138.8 119.478 138.8ZM119.378 184.3C112.645 184.3 107.245 182.133 103.178 177.8C99.1115 173.4 97.0781 167.367 97.0781 159.7C97.0781 154.567 98.1115 150.1 100.178 146.3C102.311 142.5 105.111 139.533 108.578 137.4C112.111 135.267 115.945 134.2 120.078 134.2C123.545 134.2 126.678 134.967 129.478 136.5C132.278 138.033 134.511 140.233 136.178 143.1C137.845 145.9 138.678 149.333 138.678 153.4C138.678 154.533 138.611 155.6 138.478 156.6C138.345 157.533 138.178 158.333 137.978 159H106.078C106.211 165.133 107.745 169.8 110.678 173C113.611 176.2 117.478 177.8 122.278 177.8C125.478 177.8 128.145 177.167 130.278 175.9C132.411 174.567 134.378 172.867 136.178 170.8L138.578 172.7C136.711 176.233 134.178 179.067 130.978 181.2C127.778 183.267 123.911 184.3 119.378 184.3Z" fill="#444444"/>
<path d="M240.13 188.8C248.11 188.8 255.18 187.05 261.34 183.55C267.5 179.91 272.68 175.01 276.88 168.85C281.08 162.55 284.23 155.41 286.33 147.43C288.43 139.45 289.48 131.05 289.48 122.23C289.48 113.41 288.43 105.01 286.33 97.03C284.23 89.05 281.08 81.91 276.88 75.61C272.68 69.31 267.5 64.41 261.34 60.91C255.18 57.27 248.11 55.45 240.13 55.45C232.15 55.45 225.08 57.27 218.92 60.91C212.9 64.41 207.79 69.31 203.59 75.61C199.39 81.91 196.24 89.05 194.14 97.03C192.04 105.01 190.99 113.41 190.99 122.23C190.99 131.05 192.04 139.45 194.14 147.43C196.24 155.41 199.39 162.55 203.59 168.85C207.79 175.01 212.9 179.91 218.92 183.55C225.08 187.05 232.15 188.8 240.13 188.8ZM269.95 236.26C261.55 236.26 254.69 234.23 249.37 230.17C244.05 226.25 240.06 221.14 237.4 214.84C234.88 208.68 233.62 202.24 233.62 195.52C223.4 194.4 214.02 190.83 205.48 184.81C197.08 178.65 190.36 170.25 185.32 159.61C180.42 148.97 177.97 136.51 177.97 122.23C177.97 107.11 180.77 94.09 186.37 83.17C192.11 72.11 199.67 63.57 209.05 57.55C218.57 51.53 228.93 48.52 240.13 48.52C251.47 48.52 261.83 51.53 271.21 57.55C280.73 63.43 288.29 71.9 293.89 82.96C299.63 93.88 302.5 106.97 302.5 122.23C302.5 136.51 299.91 149.04 294.73 159.82C289.55 170.46 282.62 178.93 273.94 185.23C265.26 191.39 255.6 194.89 244.96 195.73C245.1 206.09 247.69 214.14 252.73 219.88C257.91 225.76 264.7 228.7 273.1 228.7C279.4 228.7 285.7 227.58 292 225.34L293.68 229.96C290.18 232.2 286.33 233.81 282.13 234.79C277.93 235.77 273.87 236.26 269.95 236.26ZM365.931 195.73C356.691 195.73 349.621 192.86 344.721 187.12C339.961 181.38 337.651 171.3 337.791 156.88L338.421 102.49L321.201 100.39V94.72L347.241 93.04L349.131 95.35L348.291 124.54V155.62C348.291 166.96 350.041 174.94 353.541 179.56C357.181 184.04 362.431 186.28 369.291 186.28C375.451 186.28 381.401 184.74 387.141 181.66C393.021 178.44 398.551 173.82 403.731 167.8L404.151 102.28L387.141 100.39V94.72L412.971 93.04L414.861 95.35L414.231 124.54V185.65L429.981 187.54V193L404.571 194.47L403.941 174.52C398.761 180.96 392.951 186.14 386.511 190.06C380.211 193.84 373.351 195.73 365.931 195.73ZM494.414 97.66C488.534 97.66 483.074 99.27 478.034 102.49C473.134 105.57 469.074 109.98 465.854 115.72C462.774 121.46 460.884 128.25 460.184 136.09H514.994C517.934 136.09 519.894 135.32 520.874 133.78C521.994 132.24 522.554 129.93 522.554 126.85C522.554 121.81 521.434 117.05 519.194 112.57C516.954 108.09 513.734 104.52 509.534 101.86C505.334 99.06 500.294 97.66 494.414 97.66ZM495.254 195.73C486.854 195.73 479.154 193.84 472.154 190.06C465.154 186.14 459.484 180.33 455.144 172.63C450.944 164.93 448.844 155.27 448.844 143.65C448.844 133.01 450.944 123.77 455.144 115.93C459.484 108.09 465.154 102 472.154 97.66C479.154 93.32 486.714 91.15 494.834 91.15C502.534 91.15 509.254 92.9 514.994 96.4C520.734 99.76 525.144 104.38 528.224 110.26C531.444 116.14 533.054 122.86 533.054 130.42C533.054 132.94 532.914 135.18 532.634 137.14C532.354 139.1 532.004 140.85 531.584 142.39L459.974 142.18C460.114 152.54 461.864 161.08 465.224 167.8C468.724 174.38 473.274 179.28 478.874 182.5C484.614 185.58 490.844 187.12 497.564 187.12C504.284 187.12 510.234 185.86 515.414 183.34C520.594 180.82 525.144 177.39 529.064 173.05L532.424 175.99C528.504 182.01 523.254 186.84 516.674 190.48C510.234 193.98 503.094 195.73 495.254 195.73ZM585.144 195.73C579.264 195.73 573.944 195.1 569.184 193.84C564.564 192.58 559.734 190.83 554.694 188.59L553.854 166.75H561.204L564.564 185.23C567.364 186.63 570.444 187.68 573.804 188.38C577.164 189.08 581.084 189.43 585.564 189.43C594.664 189.43 601.454 187.61 605.934 183.97C610.414 180.19 612.654 175.5 612.654 169.9C612.654 165 611.044 161.01 607.824 157.93C604.604 154.85 599.074 151.91 591.234 149.11L581.364 145.54C573.804 142.74 567.714 139.24 563.094 135.04C558.614 130.84 556.374 125.24 556.374 118.24C556.374 110.68 559.244 104.31 564.984 99.13C570.864 93.81 579.264 91.15 590.184 91.15C595.924 91.15 600.894 91.92 605.094 93.46C609.294 94.86 613.774 96.96 618.534 99.76L617.904 119.5H610.974L608.664 102.7C605.444 100.74 602.224 99.41 599.004 98.71C595.924 98.01 592.774 97.66 589.554 97.66C581.854 97.66 576.044 99.41 572.124 102.91C568.344 106.27 566.454 110.54 566.454 115.72C566.454 120.9 568.064 124.89 571.284 127.69C574.644 130.49 579.894 133.22 587.034 135.88L595.854 139.24C605.794 142.88 612.724 146.94 616.644 151.42C620.704 155.76 622.734 161.15 622.734 167.59C622.734 172.49 621.334 177.11 618.534 181.45C615.874 185.79 611.744 189.29 606.144 191.95C600.684 194.47 593.684 195.73 585.144 195.73ZM677.903 195.73C670.483 195.73 665.023 193.7 661.523 189.64C658.023 185.58 656.273 179.56 656.273 171.58C656.273 168.78 656.273 166.26 656.273 164.02C656.413 161.78 656.483 158.98 656.483 155.62V101.44H635.693V95.14L656.693 93.46L660.263 63.85H668.033L666.983 93.88H696.593V101.44H666.773V170.32C666.773 176.76 667.963 181.38 670.343 184.18C672.723 186.98 676.083 188.38 680.423 188.38C683.503 188.38 686.163 188.03 688.403 187.33C690.643 186.49 693.093 185.3 695.753 183.76L698.483 187.96C693.303 193.14 686.443 195.73 677.903 195.73ZM710.899 193V187.54L728.539 185.44C728.679 180.12 728.749 174.03 728.749 167.17C728.889 160.17 728.959 154.08 728.959 148.9V138.82C728.959 132.66 728.959 126.85 728.959 121.39C728.959 115.93 728.819 110.4 728.539 104.8L709.849 103.96V98.5L737.149 91.78L739.669 93.46L739.249 119.5V148.9C739.249 154.08 739.249 160.17 739.249 167.17C739.389 174.03 739.529 180.12 739.669 185.44L755.839 187.54V193H710.899ZM733.159 61.33C730.499 61.33 728.189 60.49 726.229 58.81C724.409 57.13 723.499 54.89 723.499 52.09C723.499 49.15 724.409 46.84 726.229 45.16C728.189 43.48 730.499 42.64 733.159 42.64C735.819 42.64 738.059 43.48 739.879 45.16C741.839 46.84 742.819 49.15 742.819 52.09C742.819 54.89 741.839 57.13 739.879 58.81C738.059 60.49 735.819 61.33 733.159 61.33ZM875.572 193V187.54L893.212 185.44C893.352 180.12 893.422 174.03 893.422 167.17C893.562 160.17 893.632 154.08 893.632 148.9V138.82C893.632 125.8 893.422 114.46 893.002 104.8L874.522 103.96V98.5L900.142 91.78L902.662 93.46L903.712 112.78C910.292 105.36 917.012 99.9 923.872 96.4C930.872 92.9 937.592 91.15 944.032 91.15C952.292 91.15 958.662 93.95 963.142 99.55C967.622 105.15 969.862 114.67 969.862 128.11V148.9C969.862 154.08 969.862 160.17 969.862 167.17C970.002 174.03 970.142 180.12 970.282 185.44L986.452 187.54V193H941.512V187.54L959.152 185.44C959.292 180.12 959.362 174.03 959.362 167.17C959.502 160.17 959.572 154.08 959.572 148.9V128.74C959.572 118.38 957.822 111.1 954.322 106.9C950.962 102.7 946.202 100.6 940.042 100.6C935.282 100.6 929.892 101.93 923.872 104.59C917.992 107.11 911.342 112.22 903.922 119.92V148.9C903.922 154.08 903.922 160.17 903.922 167.17C904.062 174.03 904.202 180.12 904.342 185.44L920.512 187.54V193H875.572Z" fill="#444444"/>
<path d="M802.2 189.56C818.147 187.133 830.8 181.413 840.16 172.4C849.693 163.213 854.46 152.12 854.46 139.12C854.46 126.293 850.473 116.067 842.5 108.44C834.527 100.813 823.867 97 810.52 97C795.787 97 782.787 102.547 771.52 113.64C768.053 113.64 766.32 112.08 766.32 108.96C766.32 107.053 768.4 104.54 772.56 101.42C776.72 98.1267 782.18 95.2667 788.94 92.84C795.7 90.4133 802.893 89.2 810.52 89.2C826.987 89.2 840.073 93.7067 849.78 102.72C859.487 111.733 864.34 123.867 864.34 139.12C864.34 152.987 859.833 164.947 850.82 175C841.807 185.053 829.76 191.64 814.68 194.76L810 224.66H805.84L802.2 189.56ZM807.92 280.04C804.973 280.04 802.547 279.087 800.64 277.18C798.733 275.273 797.78 272.847 797.78 269.9C797.78 266.953 798.733 264.527 800.64 262.62C802.547 260.713 804.973 259.76 807.92 259.76C810.867 259.76 813.293 260.713 815.2 262.62C817.107 264.527 818.06 266.953 818.06 269.9C818.06 272.847 817.107 275.273 815.2 277.18C813.293 279.087 810.867 280.04 807.92 280.04Z" fill="#444444"/>
</svg>
