<svg
id="redwoods-logo"
role="img"
viewBox="0 0 530 70"
fill="none"
xmlns="http://www.w3.org/2000/svg"
>
<title>Redwoods</title>
<g clip-path="url(#clip0_201_12)">
    <path
    d="M198.313 44.6102C199.352 40.5966 200.293 36.5468 201.423 32.5602C202.219 29.7462 203.277 27.0042 204.117 24.1992C205.175 20.6455 206.098 17.0558 207.146 13.5021C207.978 10.6971 208.891 7.91908 209.823 5.14109C210.98 1.70467 210.998 1.70467 214.75 1.68663C217.418 1.67762 220.094 1.74977 222.761 1.64154C224.796 1.56036 225.8 2.48035 226.188 4.39247C227.445 10.6249 228.639 16.8754 230.067 23.0718C231.523 29.4034 235.149 44.1142 235.619 43.9969C235.971 44.1773 237.391 37.4849 238.322 34.3731C239.905 29.0607 241.641 23.7933 243.223 18.4809C244.615 13.8088 245.664 9.03749 247.581 4.53678C248.078 3.36425 249.679 2.06545 250.908 1.91212C253.965 1.5333 257.111 1.56036 260.185 1.83997C262.952 2.08349 263.54 3.16583 262.681 5.81755C256.795 23.9016 251.026 42.0126 245.212 60.1147C244.543 62.2072 243.639 64.2817 242.463 66.1216C241.876 67.0416 240.474 67.8534 239.371 67.9526C236.442 68.2141 233.467 68.0789 230.51 68.0698C228.774 68.0698 227.915 66.8702 227.481 65.4452C225.429 58.7527 223.195 52.1144 221.478 45.3318C219.461 37.3947 217.743 29.1148 217.517 30.2332C217.074 29.8273 210.727 51.447 207.553 60.8633C204.768 69.1251 204.217 68.0518 197.065 68.2141C191.07 68.3494 190.745 68.2683 189.018 62.6672C186.604 54.8293 184.786 46.802 182.598 38.8919C180.247 30.4226 177.752 21.9894 175.356 13.5382C174.515 10.5888 173.782 7.6034 173.005 4.636C172.607 3.10269 173.068 1.9482 174.759 1.88506C178.647 1.73173 182.553 1.61448 186.441 1.79487C187.227 1.83095 188.403 3.09367 188.629 3.9866C189.85 8.75789 190.799 13.6013 191.911 18.3997C192.978 22.9906 194.162 27.5454 195.229 32.1363C196.188 36.2763 197.047 40.4432 197.951 44.6012C197.951 44.9349 198.295 44.9439 198.304 44.6012L198.313 44.6102Z"
    fill="#F3EFE3"></path>
    <path
    d="M128.727 69.08C125.472 69.062 122.226 68.9718 118.989 68.8906C115.029 68.7914 112.986 66.744 113.04 62.8386C113.347 43.2212 113.664 23.6129 113.899 3.99563C113.917 2.83212 114.333 2.2188 115.409 2.11958C125.038 1.18156 134.885 0.0992252 144.496 1.8039C148.854 2.57056 152.616 3.77916 155.916 6.80068C158.8 9.44338 160.771 12.9069 161.947 16.6138C162.29 17.6962 162.571 18.8056 162.797 19.924C164.804 29.9717 165.744 41.1197 163.14 51.1493C161.332 58.1124 155.22 66.293 147.887 67.691C141.576 68.8906 135.147 69.1341 128.727 69.0981V69.08ZM128.61 17.597C128.61 21.0785 128.646 24.2804 128.61 27.4913C128.51 35.3833 128.375 43.2754 128.239 51.1584C128.203 53.5666 128.782 54.2971 131.15 54.3693C133.528 54.4414 135.906 54.4144 138.284 54.3603C142.435 54.2611 144.849 52.5383 145.979 48.4886C146.847 45.4039 147.597 42.2471 147.905 39.0723C148.456 33.381 147.796 27.7619 145.482 22.4494C144.406 19.9781 142.715 17.8585 139.858 17.6601C136.078 17.4076 132.263 17.597 128.61 17.597Z"
    fill="#F3EFE3"></path>
    <path
    d="M421.228 4.18502C421.228 2.82309 421.662 2.15565 422.964 2.04741C426.183 1.76781 429.402 1.37095 432.629 1.28076C437.458 1.14547 442.295 1.18154 447.123 1.22664C459.574 1.35291 467.693 7.90104 470.089 20.0052C472.006 29.674 472.983 40.353 470.605 50.0399C468.76 57.5351 463.245 66.1126 455.098 67.6008C450.939 68.3585 446.689 68.7463 442.458 68.9086C437.268 69.1161 432.069 68.9718 426.879 68.9267C422.105 68.8816 420.342 67.1048 420.333 62.3786C420.315 52.827 421.291 14.0343 421.228 4.19404V4.18502ZM436.02 17.5428C435.785 17.5428 435.586 17.7413 435.586 17.9758C435.586 18.9589 435.577 19.7075 435.586 20.4471C435.686 26.8509 435.686 33.2638 435.667 39.6766C435.667 42.8154 435.098 52.8991 436.445 53.9634C438 55.1901 442.557 55.0728 444.411 54.8473C446.364 54.6128 448.57 54.0897 450.161 52.9622C453.462 50.6172 453.995 45.8279 454.592 42.1569C455.605 35.9696 456.518 17.9487 446.463 17.5789C443.073 17.4526 439.682 17.5428 436.011 17.5519L436.02 17.5428Z"
    fill="#F3EFE3"></path>
    <path
    d="M300.927 0.478037C306.172 0.496076 311.443 1.77684 316.172 4.34738C324.879 9.0826 330.856 17.7323 332.664 27.4101C335.982 45.1694 325.819 66.9063 306.533 69.6482C296.361 71.1004 285.321 68.0247 278.368 60.4755C266.641 47.749 266.37 23.5498 277.799 10.5618C283.712 3.84229 292.283 0.441959 300.918 0.478037H300.927ZM298.631 55.5508C303.649 55.9387 309.418 54.2069 312.989 50.9419C323.496 41.3362 319.4 20.2848 305.267 16.5597C299.779 15.1166 294.01 16.4876 290.168 20.7087C281.352 30.3775 280.855 51.6003 296.271 55.1901C297.03 55.3704 297.826 55.4877 298.64 55.5508H298.631Z"
    fill="#F3EFE3"></path>
    <path
    d="M408.533 34.1026C408.569 35.1939 408.569 36.2853 408.515 37.3676C408.018 48.1729 402.466 60.1237 392.81 65.7699C384.835 70.4419 373.605 71.3258 365.042 67.9526C344.111 59.7178 339.924 31.2704 351.01 13.7727C357.465 3.57169 367.294 -0.0992281 379.148 0.550173C396.933 1.52427 407.918 17.4887 408.533 34.0935V34.1026ZM394.184 35.4645C394.057 30.4316 392.421 25.4619 389.301 21.9894C382.71 14.6656 374.075 13.6464 366.914 19.473C357.384 27.2297 357.899 41.1377 362.475 48.4886C367.954 57.2916 381.95 57.5892 388.922 50.4458C392.593 46.6847 394.32 41.0385 394.184 35.4555V35.4645Z"
    fill="#F3EFE3"></path>
    <path
    d="M37.3967 43.9698C37.5232 43.8796 40.7511 48.9486 41.0314 49.5529C41.8271 51.2756 42.3696 53.1065 43.4817 54.6669C44.5396 56.1371 46.1491 56.9939 47.9393 57.2555C49.1871 57.4359 49.4764 57.977 49.4403 59.0864C49.3679 61.2421 49.3318 63.3977 49.395 65.5534C49.4493 67.4204 48.5451 68.4126 46.782 68.5749C40.1634 69.1702 31.2754 67.4475 29.3405 57.7696C27.7039 49.598 27.2428 49.6521 19.3584 49.9317C17.3421 50.0038 16.2118 50.9599 16.031 52.9622C15.8592 54.8293 15.8411 56.6963 15.8592 58.5723C15.8773 60.277 16.1576 62.1711 15.8592 63.8487C15.4343 66.3381 13.6169 67.4475 11.2027 67.6008C11.058 67.6008 10.9134 67.6188 10.7687 67.6188C8.12852 67.682 5.47025 67.2941 2.83006 67.0326C0.687162 66.8161 -0.15372 65.391 0.0361566 63.4248C0.198908 61.6931 0.614828 59.9794 0.795663 58.2476C1.20254 54.3332 1.14829 50.3556 1.26583 46.4231C1.50092 38.5131 1.5823 30.5218 1.50092 22.5847C1.43763 16.3342 1.32008 10.0747 1.25679 3.82423C1.22967 1.4431 1.94396 0.811734 4.89157 0.856831C10.5065 0.938006 16.1305 1.0733 21.7454 1.25369C24.3313 1.33486 26.9173 1.46113 29.4851 1.73172C34.1326 2.22779 37.8668 4.44657 40.3081 8.3971C45.2268 16.3613 46.2666 25.02 44.187 34.0304C43.2015 38.2876 40.6155 41.6428 37.4147 43.9969L37.3967 43.9698ZM15.6784 31.55C15.5789 35.5186 15.8592 36.177 18.7345 36.2402C19.5211 36.2402 20.8683 36.159 22.098 36.1049C25.3078 35.9696 28.5719 35.3111 30.3531 32.4159C32.5232 28.8803 32.713 23.8023 31.0674 20.0322C29.5936 16.6589 24.8648 15.4233 20.5338 15.0986C18.852 14.9723 15.597 15.1617 15.6241 17.5699C15.6513 19.942 15.7507 29.2952 15.6965 31.5591L15.6784 31.55Z"
    fill="#F3EFE3"></path>
    <path
    d="M523.02 20.9522C522.694 21.5024 521.953 21.6377 521.456 21.2318C519.566 19.6895 518.11 18.4448 516.564 17.3354C513.481 15.1166 510.036 14.1515 506.193 14.5574C502.133 14.9813 499.593 19.4099 501.808 22.8012C502.974 24.5871 504.783 26.1564 506.627 27.2658C510.497 29.5838 514.665 31.4238 518.58 33.6787C523.553 36.5378 527.722 40.1817 529.295 46.0353C530.723 51.3478 530.018 56.101 527.125 61.0076C523.644 66.9063 518.517 69.2063 512.224 69.7204C502.821 70.4871 494.014 68.7643 486.482 62.6401C485.605 61.9186 484.683 61.1249 484.14 60.1688C483.752 59.4833 483.634 58.2837 483.987 57.6343C485.135 55.4967 486.428 53.4132 487.884 51.465C490.207 48.3714 492.142 48.2631 495.081 50.8427C499.122 54.3783 503.689 56.5249 509.213 56.092C511.844 55.8846 513.842 54.4956 514.403 52.5654C515.117 50.0941 514.466 48.0737 511.917 46.4863C508.074 44.0961 504.077 41.9405 500.153 39.6856C496.084 37.3496 492.079 34.9775 489.168 31.1352C482.639 22.5216 485.225 9.01045 494.656 3.75211C501.528 -0.0721419 508.96 -0.883893 516.609 0.929017C521.474 2.08351 524.991 5.24934 527.785 9.2179C528.255 9.89436 528.915 10.5528 528.58 11.1841C526.98 14.2327 524.864 17.8044 523.02 20.9612V20.9522Z"
    fill="#F3EFE3"></path>
    <path
    d="M74.3683 43.3204C73.5184 44.9169 73.3376 53.3952 76.7915 53.3591C81.5475 53.314 86.2944 53.0705 91.0413 52.8991C92.5061 52.845 96.2403 52.2226 96.9185 54.0536C97.1445 54.6579 97.0722 55.3163 97.0089 55.9567C96.6834 58.9421 96.4483 61.9095 96.1951 64.886C96.0595 66.4644 95.3633 67.24 93.564 67.2581C83.2745 67.3302 73.0935 67.8714 62.804 66.8793C60.86 66.6898 59.7207 66.0044 59.7298 63.9479C59.7298 52.0964 59.5218 40.2538 59.4404 28.4023C59.3862 21.2949 59.3952 14.1876 59.3952 7.08026C59.3952 2.67876 60.2723 1.40702 64.6485 1.30781C74.07 1.09134 83.5096 1.13644 92.9401 1.27173C94.5043 1.29879 96.0505 1.32585 96.7919 2.87719C97.7141 4.79834 97.7322 7.02614 97.5604 9.10964C97.4338 10.5257 97.5785 14.0703 95.8877 14.5574C92.7593 15.4684 89.1516 14.9903 85.9147 15.0174C82.6777 15.0444 79.5945 15.0715 76.4299 15.1437C73.8439 15.2068 73.2472 16.1358 73.2472 18.6793C73.2381 20.8349 73.1839 22.9906 73.2653 25.1462C73.3647 27.6446 74.2418 28.4203 76.7463 28.4203C81.3667 28.4203 85.9779 28.3932 90.5983 28.4293C93.6273 28.4564 94.1155 28.7721 94.4049 31.7214C94.649 34.1927 94.7756 36.7362 94.441 39.1805C94.0794 41.8412 92.8045 42.6079 90.101 42.671C84.9562 42.7883 79.8024 42.8965 74.6577 43.0679C74.5582 43.0679 74.4678 43.1581 74.3774 43.3295L74.3683 43.3204Z"
    fill="#F3EFE3"></path>
</g>
<defs>
    <clipPath id="clip0_201_12">
    <rect width="530" height="70" fill="white"></rect>
    </clipPath>
</defs>
</svg>